<ttFont>
          <CharString index="0">
            326 -12 rmoveto
            159 113 135 209 208 -113 131 -159 -158 24 callgsubr
            158 hvcurveto
            42 vmoveto
            -134 -89 119 183 182 89 115 134 134 89 -115 -182 -183 -89 -119 -134 hvcurveto
            return
          </CharString>
          <CharString index="1">
            287 -12 rmoveto
            135 97 105 164 178 callsubr
            -164 96 -105 136 hvcurveto
            41 vmoveto
            -111 -73 140 callsubr
            73 86 111 110 74 -86 -140 -140 -74 -88 -110 hvcurveto
            return
          </CharString>
          <CharString index="2">
            155 callsubr
            100 -92 115 116 100 92 159 161 -100 92 -116 -115 -100 -92 -161 vhcurveto
            46 hmoveto
            127 72 87 97 97 73 -87 -127 -126 -73 -86 -97 -97 -72 86 126 vhcurveto
            return
          </CharString>
          <CharString index="3">
            5 -62 rlineto
            37 307 hlineto
            103 -38 82 -114 -78 -66 -38 -24 -34 vhcurveto
            20 -33 rlineto
            24 32 56 32 65 hhcurveto
            94 21 -79 -73 -2 hvcurveto
            return
          </CharString>
          <CharString index="4">
            95 253 rmoveto
            -206 108 -59 113 114 109 59 206 vhcurveto
            406 -43 -401 vlineto
            -175 -85 -53 -95 -93 -82 53 175 vhcurveto
            401 -46 vlineto
            return
          </CharString>
          <CharString index="5">
            34 -170 rmoveto
            -10 -39 rlineto
            -6 13 18 -4 18 hhcurveto
            86 48 79 80 27 hvcurveto
            190 540 rlineto
            -45 hlineto
            -103 -302 -13 -40 -16 -52 -15 -42 rlinecurve
            -4 hlineto
            -18 42 -19 52 -15 40 -116 302 rcurveline
            -48 hlineto
            197 -489 -13 -42 rlineto
            -73 -24 -40 -54 -59 hhcurveto
            -14 -15 4 4 -10 hvcurveto
            return
          </CharString>
          <CharString index="6">
            vstem
            46 64 rmoveto
            -44 46 62 -32 83 hhcurveto
            109 70 60 80 84 -49 26 -76 30 hvcurveto
            -71 30 rlineto
            -61 25 -37 21 52 vvcurveto
            55 47 35 72 54 45 -22 -31 33 vhcurveto
            26 30 rlineto
            33 -33 -55 28 -70 hhcurveto
            -95 -70 -52 -79 -69 56 -37 70 -28 hvcurveto
            70 -29 rlineto
            55 -23 42 -19 -63 vvcurveto
            -59 -49 -40 -82 -66 -57 28 43 -41 vhcurveto
            return
          </CharString>
          <CharString index="7">
            47 vstem
            46 87 rmoveto
            -58 52 75 -41 96 hhcurveto
            128 83 76 101 101 -65 41 -74 33 hvcurveto
            -100 44 rlineto
            -48 22 -66 29 76 vvcurveto
            72 59 46 87 66 52 -27 -41 39 vhcurveto
            26 31 rlineto
            43 -40 -64 36 -79 hhcurveto
            -110 -82 -67 -95 -98 76 -41 58 -25 hvcurveto
            100 -45 rlineto
            65 -29 53 -27 -82 vvcurveto
            -78 -63 -54 -101 -76 -69 35 54 -48 vhcurveto
            return
          </CharString>
          <CharString index="8">
            45 vstem
            32 54 rmoveto
            -36 43 62 -30 71 hhcurveto
            104 58 63 72 94 -82 25 -75 28 hvcurveto
            -57 21 -56 21 55 vvcurveto
            44 34 43 74 49 34 -19 -24 32 vhcurveto
            24 31 rlineto
            29 -35 -51 21 -51 hhcurveto
            -100 -55 -58 -70 -82 80 -29 73 -26 hvcurveto
            55 -20 62 -26 -60 vvcurveto
            -51 -39 -44 -75 -69 -43 27 34 -41 vhcurveto
            return
          </CharString>
          <CharString index="9">
            -3 -46 rlineto
            -2 hlineto
            37 -45 -40 21 -57 hhcurveto
            -115 -99 -98 -155 hvcurveto
            return
          </CharString>
          <CharString index="10">
            vstem
            178 hmoveto
            50 hlineto
            118 452 12 52 14 45 11 52 rlinecurve
            4 hlineto
            11 -52 12 -45 12 -52 120 -452 rcurveline
            51 hlineto
            147 659 rlineto
            -45 hlineto
            -83 -388 -15 -72 -13 -71 -15 -72 rlinecurve
            -4 hlineto
            -18 72 -17 71 -18 72 -103 388 rcurveline
            -47 hlineto
            -103 -388 -18 -72 -17 -72 -16 -71 rlinecurve
            -4 hlineto
            -15 71 -15 72 -15 72 -83 388 rcurveline
            -48 hlineto
            return
          </CharString>
          <CharString index="11">
            97 hmoveto
            317 38 -271 215 221 37 -221 184 261 38 -307 hlineto
            return
          </CharString>
          <CharString index="12">
            vstem
            153 hmoveto
            50 hlineto
            97 338 10 41 10 35 10 40 rlinecurve
            4 hlineto
            9 -40 10 -35 10 -41 99 -338 rcurveline
            49 hlineto
            124 512 rlineto
            -44 hlineto
            -67 -293 -13 -56 -11 -56 -12 -55 rlinecurve
            -4 hlineto
            -16 55 -14 56 -15 56 -84 293 rcurveline
            -44 hlineto
            -85 -293 -14 -56 -16 -56 -13 -55 rlinecurve
            -3 hlineto
            -13 55 -13 56 -12 56 -67 293 rcurveline
            -47 hlineto
            return
          </CharString>
          <CharString index="13">
            169 hmoveto
            46 205 hlineto
            167 307 rlineto
            -48 hlineto
            -80 -154 -19 -38 -19 -35 -20 -37 rlinecurve
            -4 hlineto
            -21 37 -20 35 -19 38 -81 154 rcurveline
            -48 hlineto
            166 -307 rlineto
            return
          </CharString>
          <CharString index="14">
            166 rmoveto
            70 48 53 65 38 vhcurveto
            99 -39 96 -34 -98 vvcurveto
            -73 -59 -58 -90 -92 -67 62 79 vhcurveto
            hintmask 11011000
            206 169 rmoveto
            -84 33 -86 36 91 vvcurveto
            69 52 50 71 83 48 -60 -71 -55 -30 -49 -54 -44 vhcurveto
            hintmask 11100100
            -250 -171 rmoveto
            -101 86 -75 117 116 78 74 93 86 -57 43 -55 34 vhcurveto
            4 vlineto
            hintmask 11011000
            37 30 54 62 70 vvcurveto
            96 -64 71 -109 -93 -74 -64 -92 -68 45 -48 47 -31 201 callgsubr
            -60 -32 -68 -62 -86 vvcurveto
            endchar
          </CharString>
          <CharString index="15">
            rmoveto
            10 -14 4 -12 -13 vvcurveto
            -41 -30 -21 -64 -7 vhcurveto
            -10 -401 hlineto
            -175 -85 -53 -95 -93 -82 53 175 vhcurveto
            401 -46 -406 vlineto
            -206 108 -59 113 114 109 59 206 vhcurveto
            380 59 callgsubr
            17 -12 18 vhcurveto
            endchar
          </CharString>
          <CharString index="16">
            -38 -87 callgsubr
            return
          </CharString>
          <CharString index="17">
            97 hmoveto
            43 303 hlineto
            50 -3 50 -3 50 vhcurveto
            4 hlineto
            62 -103 228 -350 rlineto
            47 512 -42 -299 hlineto
            -51 3 -53 2 -50 vhcurveto
            -4 hlineto
            -61 102 -228 351 rlineto
            -48 hlineto
            return
          </CharString>
          <CharString index="18">
            65 120 rmoveto
            -91 64 -41 76 63 58 35 39 49 vhcurveto
            2 hlineto
            return
          </CharString>
          <CharString index="19">
            hstem
            55 48 446 49 vstem
            -107 callsubr
            return
          </CharString>
          <CharString index="20">
            rlineto
            40 hlineto
            -96 106 rlineto
            -42 2 callgsubr
            return
          </CharString>
          <CharString index="21">
            54 callsubr
            163 85 60 36 58 51 vhcurveto
            -28 29 rlineto
            -54 -48 -50 -27 -68 hhcurveto
            -142 -88 118 183 183 89 115 145 60 48 -27 -40 35 hvcurveto
            28 30 rlineto
            41 -35 -60 38 -76 hhcurveto
            -168 -114 140 callgsubr
            return
          </CharString>
          <CharString index="22">
            -78 callsubr
            -40 64 111 111 40 62 62 62 40 -62 -111 -111 -40 -64 -62 hvcurveto
            return
          </CharString>
          <CharString index="23">
            rmoveto
            10 -13 4 -13 -13 vvcurveto
            -41 -31 -21 -63 -7 vhcurveto
            -10 -309 hlineto
            -75 callgsubr
          </CharString>
          <CharString index="24">
            103 133 rmoveto
            -86 27 -59 93 20 30 8 10 28 vhcurveto
            -12 36 rlineto
            -8 -17 -25 -7 -18 hhcurveto
            -66 -15 41 61 hvcurveto
            313 139 38 -139 139 -38 vlineto
            -6 -139 -76 -4 rlineto
            -34 75 vlineto
            return
          </CharString>
          <CharString index="25">
            127 callsubr
            94 -92 124 61 51 27 37 41 vhcurveto
            -23 30 rlineto
            -30 -33 -44 -25 -51 hhcurveto
            -105 -69 175 callgsubr
            76 87 98 47 36 -22 -29 31 hvcurveto
            26 31 rlineto
            30 -32 -43 29 -66 hhcurveto
            -117 -102 -92 -161 hvcurveto
            return
          </CharString>
          <CharString index="26">
            21 17 16 25 23 -17 16 -21 return
          </CharString>
          <CharString index="27">
            92 64 rmoveto
            -52 20 -24 39 14 9 187 callsubr
            -8 36 rlineto
            -2 -10 -4 0 -4 hhcurveto
            -12 -9 10 21 hvcurveto
            661 -44 vlineto
            return
          </CharString>
          <CharString index="28">
            -88 callgsubr
            -21 -17 -16 -23 return
          </CharString>
          <CharString index="29">
            87 54 74 134 132 -54 74 -87 -87 -54 -74 -132 -134 54 -74 87 hvcurveto
            33 vmoveto
            -62 return
          </CharString>
          <CharString index="30">
            -30 callsubr
            -10 callgsubr
            22 hvcurveto
            endchar
          </CharString>
          <CharString index="31">
            197 561 rmoveto
            9 -13 5 -13 -13 vvcurveto
            -37 -26 -21 -54 -9 vhcurveto
            26 -36 -45 14 -50 hhcurveto
            -136 -96 -102 -165 -164 96 -105 136 hvcurveto
            return
          </CharString>
          <CharString index="32">
            rmoveto
            -40 29 44 -35 68 hhcurveto
            74 58 53 81 87 -56 46 -71 -30 -23 -9 -11 -20 hvcurveto
            13 119 rlineto
            166 36 -199 hlineto
            -20 -185 24 -16 rlineto
            17 21 25 19 36 hhcurveto
            57 38 -40 -62 -60 -40 -42 -53 -51 -35 26 38 -26 hvcurveto
            return
          </CharString>
          <CharString index="33">
            26 rmoveto
            -104 -52 91 135 -8 hvcurveto
            70 52 58 26 45 hhcurveto
            97 41 -68 -92 -91 -55 -71 -74 hvcurveto
            160 563 rmoveto
            37 -33 -42 25 -60 hhcurveto
            -123 -112 -93 -268 -194 81 -108 128 94 81 84 116 129 -66 69 -112 -59 -58 -34 -54 -44 hvcurveto
            234 2 87 80 101 hhcurveto
            41 39 -18 -35 28 hvcurveto
            endchar
          </CharString>
          <CharString index="34">
            110 -142 rmoveto
            -20 -35 rlineto
            -32 47 57 -20 64 hhcurveto
            124 70 73 114 hvcurveto
            return
          </CharString>
          <CharString index="35">
            85 12 53 49 81 vvcurveto
            101 -74 38 -111 vhcurveto
            -162 -512 46 228 114 hlineto
            148 -228 rlineto
            return
          </CharString>
          <CharString index="36">
            -75 -72 rlineto
            -4 hlineto
            -75 72 rlineto
            return
          </CharString>
          <CharString index="37">
            14 -28 -31 7 -33 hhcurveto
            -115 -100 -92 -161 -159 100 -92 115 116 100 92 159 95 -35 71 -52 42 hvcurveto
            return
          </CharString>
          <CharString index="38">
            48 vstem
            97 hmoveto
            154 hlineto
            202 96 132 200 199 -96 128 -203 hvcurveto
            -153 hlineto
            46 -620 rmoveto
            581 102 vlineto
            179 77 -117 -171 -172 -77 -121 -179 hvcurveto
            return
          </CharString>
          <CharString index="39">
            rmoveto
            -58 -31 41 53 54 35 42 50 62 38 -50 -89 5 hvcurveto
            -39 -36 -29 -12 -36 hhcurveto
            -107 -167 rmoveto
            -14 23 23 -10 39 hhcurveto
            84 78 61 161 122 -58 70 -85 -71 -53 -56 -73 -73 43 -53 79 40 36 16 29 31 hvcurveto
            -122 -6 -60 -49 -57 hhcurveto
            -28 -22 10 12 -18 hvcurveto
            endchar
          </CharString>
          <CharString index="40">
            -157 -117 rmoveto
            -58 51 -50 79 74 57 48 64 46 -27 29 -47 24 vhcurveto
            4 vlineto
            return
          </CharString>
          <CharString index="41">
            4 -62 rlineto
            38 480 -39 hlineto
            return
          </CharString>
          <CharString index="42">
            -16 21 -51 callgsubr
            return
          </CharString>
          <CharString index="43">
            rmoveto
            47 33 17 17 27 hvcurveto
            -16 27 rlineto
            -16 -22 -31 -13 -35 hhcurveto
            -70 -45 52 76 -1 hvcurveto
            230 hlineto
            2 16 0 4 11 vvcurveto
            53 -24 90 -102 -79 -65 -65 -102 -108 67 -59 84 vhcurveto
            -113 190 rmoveto
            68 8 40 43 58 hhcurveto
            68 23 -60 -51 hvcurveto
            endchar
          </CharString>
          <CharString index="44">
            62 -12 40 -7 -24 callsubr
            return
          </CharString>
          <CharString index="45">
            30 50 vvcurveto
            61 -51 40 -66 -63 -50 -42 -59 -42 24 -24 34 -22 vhcurveto
            -4 vlineto
            return
          </CharString>
          <CharString index="46">
            -53 callsubr
            102 callgsubr
            52 45 306 42 hintmask 11101110
            -41 callsubr
            return
          </CharString>
          <CharString index="47">
            3 callsubr
            15 14 22 23 -15 -67 callgsubr
            endchar
          </CharString>
          <CharString index="48">
            -86 callgsubr
            -308 vlineto
            -124 46 -60 99 66 50 37 55 47 vhcurveto
            2 hlineto
            return
          </CharString>
          <CharString index="49">
            6 -15 -22 6 -26 hhcurveto
            -94 -75 -70 -99 -58 30 -48 30 -26 hvcurveto
            -4 vlineto
            return
          </CharString>
          <CharString index="50">
            hlineto
            75 99 130 callgsubr
            -99 rlineto
            return
          </CharString>
          <CharString index="51">
            83 callsubr
            -36 -31 callgsubr
          </CharString>
          <CharString index="52">
            32 -12 38 -5 -50 callsubr
            return
          </CharString>
          <CharString index="53">
            -28 21 -17 22 20 callgsubr
            -21 -17 -29 vhcurveto
            return
          </CharString>
          <CharString index="54">
            16 -12 38 208 34 186 38 return
          </CharString>
          <CharString index="55">
            -6 0 38 215 37 184 38 return
          </CharString>
          <CharString index="56">
            -21 226 39 351 43 return
          </CharString>
          <CharString index="57">
            -21 453 39 return
          </CharString>
          <CharString index="58">
            19 callgsubr
            36 55 callsubr
            return
          </CharString>
          <CharString index="59">
            rmoveto
            -97 -72 175 callgsubr
            72 87 97 97 73 -87 -127 -126 -73 -86 -97 hvcurveto
            return
          </CharString>
          <CharString index="60">
            12 -83 39 290 39 259 39 hstemhm
            158 124 76 46 -23 46 hintmask 11110100
            29 7 rmoveto
            -43 41 60 -47 102 hhcurveto
            110 85 70 111 91 -66 60 -79 16 hvcurveto
            4 vlineto
            hintmask 11111000
            70 24 52 51 84 vvcurveto
            98 -76 57 -99 -74 -55 -35 -43 -44 vhcurveto
            26 -31 rlineto
            40 37 51 30 59 hhcurveto
            78 51 -47 -72 -77 -52 -63 -148 hvcurveto
            -39 vlineto
            hintmask 11110100
            159 64 -61 -87 -85 -63 -57 -86 -88 -51 40 42 -38 hvcurveto
            endchar
          </CharString>
          <CharString index="61">
            -130 261 32 151 26 92 33 hstem
            42 39 167 37 vstem
            139 261 rmoveto
            43 35 23 24 28 hvcurveto
            4 hlineto
            6 -39 rlineto
            30 200 hlineto
            76 -26 50 -77 -52 -48 -25 -18 -26 vhcurveto
            15 -27 rlineto
            16 23 44 21 40 hhcurveto
            55 14 -41 -51 1 hvcurveto
            -143 -13 -63 -35 -70 vvcurveto
            -57 40 -34 57 vhcurveto
            9 32 rmoveto
            -41 -26 19 43 45 43 31 124 13 hvcurveto
            -102 vlineto
            -33 -36 -33 -16 -31 hhcurveto
            endchar
          </CharString>
          <CharString index="62">
            vstem
            27 hmoveto
            351 39 -293 hlineto
            283 418 rlineto
            23 -310 -38 253 vlineto
            -284 -418 rlineto
            return
          </CharString>
          <CharString index="63">
            5 -80 rlineto
            37 480 -44 hlineto
            return
          </CharString>
          <CharString index="64">
            -12 -3 callsubr
            return
          </CharString>
          <CharString index="65">
            50 hmoveto
            440 40 -383 hlineto
            380 592 rlineto
            27 -404 -40 346 vlineto
            -379 -592 rlineto
            return
          </CharString>
          <CharString index="66">
            -107 callgsubr
            -245 304 -36 callsubr
            return
          </CharString>
          <CharString index="67">
            5 -80 rlineto
            37 457 hlineto
            40 11 49 24 60 -49 callgsubr
          </CharString>
          <CharString index="68">
            hlineto
            -75 -99 rlineto
            -4 hlineto
            -75 99 rlineto
            return
          </CharString>
          <CharString index="69">
            -545 -48 callsubr
            hintmask 11011010
            -22 callsubr
            hintmask 10111100
            -70 callsubr
            hintmask 10111010
            10 callsubr
          </CharString>
          <CharString index="70">
            143 callgsubr
            65 -78 rlineto
            36 hlineto
            -84 114 rlineto
            return
          </CharString>
          <CharString index="71">
            76 callgsubr
            66 -78 rlineto
            35 hlineto
            -83 173 callsubr
            return
          </CharString>
          <CharString index="72">
            rmoveto
            227 36 -227 hlineto
            return
          </CharString>
          <CharString index="73">
            vlineto
            124 -46 60 -99 -66 -50 -37 return
          </CharString>
          <CharString index="74">
            45 23 48 44 3 hvcurveto
            return
          </CharString>
          <CharString index="75">
            158 0 39 293 33 255 39 hstem
            118 46 358 48 vstem
            164 39 rmoveto
            293 163 33 -163 255 102 vlineto
            178 78 -117 -171 -172 -78 -121 -178 hvcurveto
            -148 620 rmoveto
            -294 vlineto
            -81 -2 rlineto
            -31 81 -332 153 vlineto
            203 96 132 200 199 -96 128 -204 hvcurveto
            endchar
          </CharString>
          <CharString index="76">
            39 -10 28 -13 -30 vvcurveto
            -28 -91 callsubr
            40 return
          </CharString>
          <CharString index="77">
            rmoveto
            -81 callsubr
            -22 return
          </CharString>
          <CharString index="78">
            206 rmoveto
            -103 -39 72 96 96 59 75 80 108 52 -96 -145 6 hvcurveto
            -71 -53 -59 -27 -51 hhcurveto
            -162 -230 rmoveto
            -36 36 43 -23 61 hhcurveto
            124 106 98 265 191 -79 112 -131 -99 -85 -88 -121 -131 63 -74 118 65 59 34 54 44 hvcurveto
            -223 -6 -83 -78 -96 hhcurveto
            -45 -39 17 35 -32 hvcurveto
            endchar
          </CharString>
          <CharString index="79">
            291 rmoveto
            -98 -41 68 93 91 56 70 73 104 53 -90 -135 8 hvcurveto
            -69 -52 -58 -28 -45 hhcurveto
            -170 -241 rmoveto
            -37 32 44 -25 59 hhcurveto
            124 111 94 268 194 -81 107 -127 -95 -80 -83 -116 -129 66 -69 111 60 58 35 53 44 hvcurveto
            -235 -2 -87 -80 -101 hhcurveto
            -42 -39 18 35 -28 hvcurveto
            endchar
          </CharString>
          <CharString index="80">
            44 hintmask 11011101
            -41 callgsubr
            -162 78 -89 121 64 53 35 39 39 vhcurveto
            3 hlineto
            hintmask 10111101
            16 callsubr
            hintmask 11011101
            -66 callgsubr
            return
          </CharString>
          <CharString index="81">
            12 callgsubr
            -4 return
          </CharString>
          <CharString index="82">
            12 -12 39 337 39 197 39 hstem
            385 46 vstem
            26 74 rmoveto
            -41 41 58 -45 102 hhcurveto
            103 101 77 136 140 -87 62 -108 -47 -34 -14 -20 -33 hvcurveto
            20 231 rlineto
            255 39 -295 hlineto
            -23 -299 31 -19 rlineto
            26 38 32 17 49 hhcurveto
            95 61 -62 -103 -103 -74 -69 -85 -87 -50 39 39 -38 hvcurveto
            endchar
          </CharString>
          <CharString index="83">
            -21 480 -20 return
          </CharString>
          <CharString index="84">
            108 56 83 -20 callsubr
            -4 -104 rlineto
            -87 vlineto
            94 hmoveto
            -58 244 -36 hlineto
            -177 -255 rlineto
            -21 177 return
          </CharString>
          <CharString index="85">
            164 551 rmoveto
            10 -13 5 -13 -13 vvcurveto
            -38 -30 -23 -57 -7 vhcurveto
            return
          </CharString>
          <CharString index="86">
            -16 -23 -25 return
          </CharString>
          <CharString index="87">
            rlineto
            4 hlineto
            return
          </CharString>
          <CharString index="88">
            vvcurveto
            39 -17 20 -27 -18 -18 -13 -24 -22 18 -10 18 3 3 0 1 3 vhcurveto
            -38 -23 -28 -33 -14 vhcurveto
            endchar
          </CharString>
          <CharString index="89">
            rmoveto
            228 36 -228 hlineto
            endchar
          </CharString>
          <CharString index="90">
            rmoveto
            20 16 13 22 22 -16 14 -20 219 callgsubr
            -22 15 -13 20 hvcurveto
            158 hmoveto
            20 15 13 22 22 -15 1 callsubr
            return
          </CharString>
          <CharString index="91">
            97 hmoveto
            46 176 hlineto
            111 113 176 -289 rlineto
            51 hlineto
            -198 321 177 191 rlineto
            -53 hlineto
            -262 -276 rlineto
            -2 276 -46 hlineto
            return
          </CharString>
          <CharString index="92">
            rmoveto
            20 15 14 21 60 callgsubr
            -21 16 -14 20 hvcurveto
            157 hmoveto
            21 15 14 21 134 callgsubr
            -21 15 -14 20 hvcurveto
            return
          </CharString>
          <CharString index="93">
            rmoveto
            21 15 13 22 134 callgsubr
            -22 15 -13 20 hvcurveto
            158 hmoveto
            20 16 13 22 22 -16 1 callsubr
            return
          </CharString>
          <CharString index="94">
            rmoveto
            106 hlineto
            97 53 -27 -75 -72 -49 -36 -101 hvcurveto
            -106 hlineto
            return
          </CharString>
          <CharString index="95">
            66 -20 callsubr
            70 -66 -60 callgsubr
            return
          </CharString>
          <CharString index="96">
            16 16 21 20 -16 16 return
          </CharString>
          <CharString index="97">
            -19 callgsubr
            135 -21 return
          </CharString>
          <CharString index="98">
            36 vstem
            143 703 rmoveto
            -53 -35 -32 -50 -71 vvcurveto
            -43 18 -24 26 23 17 15 25 25 -20 12 -20 -3 -3 0 -1 -2 vhcurveto
            57 23 31 44 36 vhcurveto
            return
          </CharString>
          <CharString index="99">
            -26 callgsubr
            28 hlineto
            34 return
          </CharString>
          <CharString index="100">
            rmoveto
            22 18 17 24 23 -18 17 -22 -22 -18 -17 -23 -24 18 -17 22 hvcurveto
            endchar
          </CharString>
          <CharString index="101">
            rmoveto
            47 24 25 16 30 58 46 -90 77 hhcurveto
            39 42 27 54 28 hvcurveto
            -28 20 rlineto
            -47 -24 -25 -16 -30 -58 -46 90 -77 hhcurveto
            -39 -42 -27 -56 -29 hvcurveto
            return
          </CharString>
          <CharString index="102">
            rmoveto
            -202 147 -132 173 172 147 132 202 201 -147 129 -172 -173 -147 -129 -201 vhcurveto
            35 hmoveto
            180 131 120 154 153 131 -120 -180 -181 -131 -122 -153 -154 -131 122 181 vhcurveto
            return
          </CharString>
          <CharString index="103">
            207 callgsubr
            -47 18 -59 2 vhcurveto
            -5 -30 rlineto
            48 -3 25 -10 -30 vvcurveto
            -23 -23 -11 -28 -8 vhcurveto
            return
          </CharString>
          <CharString index="104">
            42 599 42 return
          </CharString>
          <CharString index="105">
            rmoveto
            27 -16 rlineto
            55 77 30 80 109 vvcurveto
            108 -30 80 -55 77 vhcurveto
            -27 -16 rlineto
            55 -77 18 -84 -88 vvcurveto
            -88 -18 -84 -55 -78 vhcurveto
            endchar
          </CharString>
          <CharString index="106">
            158 113 135 209 126 -42 99 -68 57 hvcurveto
            return
          </CharString>
          <CharString index="107">
            92 hmoveto
            44 362 hlineto
            60 53 48 30 43 hhcurveto
            74 34 -48 -102 hvcurveto
            -302 44 362 vlineto
            60 53 46 30 45 hhcurveto
            73 34 -48 -102 hvcurveto
            -302 45 308 vlineto
            124 -48 60 -96 -55 -53 -38 -60 -55 vhcurveto
            59 -17 -39 39 -77 hhcurveto
            -53 -55 -37 -49 -43 hvcurveto
            -3 hlineto
            return
          </CharString>
          <CharString index="108">
            14 -20 -20 -16 -14 -22 -22 16 -13 20 hvcurveto
            return
          </CharString>
          <CharString index="109">
            -88 callgsubr
            hvcurveto
            return
          </CharString>
          <CharString index="110">
            rmoveto
            4 callgsubr
            158 hmoveto
            21 return
          </CharString>
          <CharString index="111">
            -24 15 -14 20 21 15 14 24 23 72 callsubr
            -23 vhcurveto
            return
          </CharString>
          <CharString index="112">
            85 53 -29 -51 -53 -42 -30 -49 -45 -40 26 38 -24 hvcurveto
            return
          </CharString>
          <CharString index="113">
            -107 82 callsubr
            33 39 214 39 vstem
            179 261 rmoveto
            81 65 62 105 106 -65 61 -81 -81 -65 -61 -106 -105 65 -62 81 hvcurveto
            33 vmoveto
            -64 -43 55 79 80 43 54 64 64 43 -54 -80 -79 -43 -55 -64 hvcurveto
            endchar
          </CharString>
          <CharString index="114">
            32 17 32 hstemhm
            103 29 186 29 vstemhm
            318 805 rmoveto
            -30 -4 -16 -19 -21 hhcurveto
            hintmask 11110111
            -35 -20 49 -48 hhcurveto
            -46 -22 -43 -38 -3 hvcurveto
            29 hlineto
            30 5 15 19 22 hhcurveto
            hintmask 11111111
            192 callgsubr
            return
          </CharString>
          <CharString index="115">
            -61 callgsubr
            endchar
          </CharString>
          <CharString index="116">
            -55 38 -27 46 22 28 11 13 16 vhcurveto
            -17 27 84 callgsubr
            -25 return
          </CharString>
          <CharString index="117">
            46 13 44 25 57 vvcurveto
            20 -7 18 -13 18 vhcurveto
            endchar
          </CharString>
          <CharString index="118">
            rmoveto
            38 hlineto
            -92 136 rlineto
            -52 hlineto
            endchar
          </CharString>
          <CharString index="119">
            -20 hstemhm
            44 39 14 46 hintmask 11101000
            97 hmoveto
            9 hlineto
            hintmask 11111000
            -34 -34 -28 -35 -54 vvcurveto
            -55 38 -27 46 65 callgsubr
            -13 -13 -4 -17 hhcurveto
            -25 -26 17 35 hvcurveto
            hintmask 11101000
            44 26 34 34 38 vhcurveto
            return
          </CharString>
          <CharString index="120">
            140 rmoveto
            hintmask 11010000
            188 272 18 29 18 31 16 29 rlinecurve
            4 hlineto
            -2 -29 -2 -48 -30 vvcurveto
            -254 vlineto
            138 hmoveto
            -95 431 -40 hlineto
            -297 -443 rlineto
            -27 294 -172 43 172 95 vlineto
            endchar
          </CharString>
          <CharString index="121">
            -12 callsubr
            endchar
          </CharString>
          <CharString index="122">
            rmoveto
            40 hlineto
            62 callgsubr
            endchar
          </CharString>
          <CharString index="123">
            4 -62 rlineto
            38 719 -44 -198 hlineto
            2 -88 rlineto
            37 -48 -39 22 -58 hhcurveto
            return
          </CharString>
          <CharString index="124">
            239 hmoveto
            46 619 210 40 -466 -40 210 hlineto
            return
          </CharString>
          <CharString index="125">
            -49 48 hhcurveto
            47 21 43 60 callsubr
            -19 return
          </CharString>
          <CharString index="126">
            rmoveto
            -53 hlineto
            -91 -136 rlineto
            37 hlineto
            return
          </CharString>
          <CharString index="127">
            61 callgsubr
            46 return
          </CharString>
          <CharString index="128">
            179 callgsubr
            -54 -26 70 callgsubr
            return
          </CharString>
          <CharString index="129">
            21 52 vvcurveto
            51 -55 152 callgsubr
            55 -2 31 -16 145 callgsubr
          </CharString>
          <CharString index="130">
            93 callgsubr
            -52 -24 95 callsubr
            return
          </CharString>
          <CharString index="131">
            135 97 105 164 87 -27 69 -45 46 hvcurveto
            return
          </CharString>
          <CharString index="132">
            68 203 callsubr
            return
          </CharString>
          <CharString index="133">
            -6 28 -12 -31 vvcurveto
            -27 return
          </CharString>
          <CharString index="134">
            77 20 40 55 69 vvcurveto
            110 -85 50 -133 vhcurveto
            -178 hlineto
            46 -290 rmoveto
            252 119 vlineto
            121 64 -36 -85 -87 -55 -44 -135 hvcurveto
            -114 -331 rmoveto
            294 133 vlineto
            return
          </CharString>
          <CharString index="135">
            19 46 vvcurveto
            47 -47 18 -59 3 vhcurveto
            -5 -31 rlineto
            48 -2 25 -10 -30 vvcurveto
            -23 -23 -12 -28 -7 vhcurveto
            return
          </CharString>
          <CharString index="136">
            47 -8 callgsubr
            return
          </CharString>
          <CharString index="137">
            -21 25 callgsubr
            21 hvcurveto
            return
          </CharString>
          <CharString index="138">
            30 4 16 15 21 hhcurveto
            hintmask 1010110101100000
            35 19 -45 48 hhcurveto
            47 21 39 36 callgsubr
            -15 -15 -22 hhcurveto
            hintmask 1010111110100000
            -35 -18 45 -49 hhcurveto
            -47 -21 -39 -38 -3 hvcurveto
            endchar
          </CharString>
          <CharString index="139">
            rmoveto
            30 4 16 19 22 hhcurveto
            hintmask 11111000
            34 20 18 callsubr
            -22 hhcurveto
            hintmask 10111000
            -34 -20 195 callsubr
          </CharString>
          <CharString index="140">
            136 rlineto
            -37 -39 callsubr
            return
          </CharString>
          <CharString index="141">
            -37 -52 hhcurveto
            -51 101 callsubr
            return
          </CharString>
          <CharString index="142">
            rmoveto
            -57 hlineto
            -93 164 callsubr
            return
          </CharString>
          <CharString index="143">
            -12 103 callsubr
            return
          </CharString>
          <CharString index="144">
            30 5 15 15 22 hhcurveto
            hintmask 11111000
            35 18 -45 49 hhcurveto
            46 22 39 38 2 hvcurveto
            -28 hlineto
            -30 -5 -15 -15 -22 hhcurveto
            hintmask 10111000
            -35 -18 45 -49 hhcurveto
            -46 -22 -39 -38 -2 hvcurveto
            endchar
          </CharString>
          <CharString index="145">
            33 163 28 157 33 hstemhm
            253 39 -23 39 hintmask 11101000
            40 return
          </CharString>
          <CharString index="146">
            33 190 32 126 33 hstem
            50 38 191 38 vstem
            194 return
          </CharString>
          <CharString index="147">
            207 callgsubr
            -47 20 -59 2 vhcurveto
            -3 204 callsubr
            -14 -30 vvcurveto
            -23 -21 -13 return
          </CharString>
          <CharString index="148">
            rmoveto
            -33 callsubr
            -29 hlineto
            115 callgsubr
            return
          </CharString>
          <CharString index="149">
            vstem
            97 hmoveto
            298 39 -252 473 -46 hlineto
            return
          </CharString>
          <CharString index="150">
            hhcurveto
            -48 -18 -46 -43 -3 hvcurveto
            endchar
          </CharString>
          <CharString index="151">
            hstem
            92 117 callgsubr
            return
          </CharString>
          <CharString index="152">
            102 37 callgsubr
            return
          </CharString>
          <CharString index="153">
            -21 -10 callgsubr
            21 return
          </CharString>
          <CharString index="154">
            38 -21 38 154 38 -24 38 return
          </CharString>
          <CharString index="155">
            -114 -58 callgsubr
            return
          </CharString>
          <CharString index="156">
            88 callsubr
            -45 6 34 -59 75 hhcurveto
            return
          </CharString>
          <CharString index="157">
            hstem
            321 46 vstem
            41 85 rmoveto
            -62 33 56 -35 73 hhcurveto
            120 44 85 106 hvcurveto
            480 -46 -475 vlineto
            -107 -38 -47 -80 -55 -40 22 56 -32 vhcurveto
            return
          </CharString>
          <CharString index="158">
            -12 -56 callgsubr
            return
          </CharString>
          <CharString index="159">
            hstem
            278 46 vstem
            41 67 rmoveto
            -49 28 48 -30 63 hhcurveto
            104 40 69 84 hvcurveto
            371 -46 -366 vlineto
            -82 -33 -35 -66 -45 -33 18 43 -27 vhcurveto
            return
          </CharString>
          <CharString index="160">
            rmoveto
            96 106 rlineto
            -40 hlineto
            -71 callsubr
            -40 hlineto
            96 -106 rlineto
            return
          </CharString>
          <CharString index="161">
            vstem
            55 331 rmoveto
            -210 113 -133 return
          </CharString>
          <CharString index="162">
            hlineto
            -94 56 callsubr
            return
          </CharString>
          <CharString index="163">
            136 rlineto
            -39 hlineto
            return
          </CharString>
          <CharString index="164">
            rmoveto
            39 hlineto
            70 66 -20 callsubr
            69 -66 rlineto
            40 hlineto
            -91 100 rlineto
            -40 hlineto
            return
          </CharString>
          <CharString index="165">
            -12 -31 vvcurveto
            -27 -37 -15 -55 -8 vhcurveto
            return
          </CharString>
          <CharString index="166">
            rmoveto
            -52 hlineto
            -92 172 callsubr
            return
          </CharString>
          <CharString index="167">
            36 callgsubr
            -16 return
          </CharString>
          <CharString index="168">
            21 135 callsubr
            return
          </CharString>
          <CharString index="169">
            21 205 callsubr
            return
          </CharString>
          <CharString index="170">
            rmoveto
            82 191 callgsubr
            -54 hhcurveto
            -53 -27 44 43 -6 hvcurveto
            -32 hlineto
            -51 5 32 -68 81 hhcurveto
            endchar
          </CharString>
          <CharString index="171">
            rmoveto
            81 32 68 51 5 hvcurveto
            -30 143 callsubr
            5 32 -68 82 hhcurveto
            endchar
          </CharString>
          <CharString index="172">
            206 callsubr
            21 52 vvcurveto
            return
          </CharString>
          <CharString index="173">
            -31 -219 41 658 -20 return
          </CharString>
          <CharString index="174">
            -14 -58 vvcurveto
            -43 -42 -36 -51 -56 -36 39 40 vhcurveto
            return
          </CharString>
          <CharString index="175">
            -50 callgsubr
            227 -20 hstemhm
            52 47 return
          </CharString>
          <CharString index="176">
            vstem
            97 hmoveto
            350 40 -304 619 -46 hlineto
            return
          </CharString>
          <CharString index="177">
            hstemhm
            52 47 309 44 return
          </CharString>
          <CharString index="178">
            176 callgsubr
            -12 -20 return
          </CharString>
          <CharString index="179">
            -15 14 -21 -20 -15 -14 return
          </CharString>
          <CharString index="180">
            vvcurveto
            20 -7 17 161 callgsubr
          </CharString>
          <CharString index="181">
            65 callsubr
            50 -54 142 callsubr
            -4 -31 rlineto
            54 -3 31 -15 89 callsubr
            -36 -11 vhcurveto
            return
          </CharString>
          <CharString index="182">
            65 callsubr
            51 return
          </CharString>
          <CharString index="183">
            29 -6 27 -12 -31 vvcurveto
            -27 -37 -87 callgsubr
            41 -29 21 -54 11 vhcurveto
            return
          </CharString>
          <CharString index="184">
            vstem
            82 481 rmoveto
            29 hlineto
            27 138 10 74 rlineto
            -43 hlineto
            return
          </CharString>
          <CharString index="185">
            -6 15 24 -6 23 hhcurveto
            74 34 46 94 hvcurveto
            569 -45 vlineto
            return
          </CharString>
          <CharString index="186">
            -150 21 100 callgsubr
            return
          </CharString>
          <CharString index="187">
            43 -6 hvcurveto
            -33 81 callsubr
            return
          </CharString>
          <CharString index="188">
            hlineto
            94 callsubr
            return
          </CharString>
          <CharString index="189">
            261 33 268 33 hstem
            return
          </CharString>
          <CharString index="190">
            rmoveto
            39 hlineto
            94 136 rlineto
            return
          </CharString>
          <CharString index="191">
            21 -24 callsubr
            return
          </CharString>
          <CharString index="192">
            264 18 29 18 24 16 27 rlinecurve
            4 hlineto
            -2 -29 -2 -52 -29 vvcurveto
            -234 vlineto
            138 hmoveto
            -95 410 return
          </CharString>
          <CharString index="193">
            rmoveto
            178 vlineto
            32 34 35 19 31 hhcurveto
            67 29 -53 -75 -86 -44 -54 -58 -27 -35 11 28 -32 hvcurveto
            endchar
          </CharString>
          <CharString index="194">
            -30 rlineto
            64 8 61 25 52 vvcurveto
            41 -28 136 callgsubr
            return
          </CharString>
          <CharString index="195">
            -35 -6 -25 34 callsubr
            return
          </CharString>
          <CharString index="196">
            -30 vvcurveto
            -29 -27 -15 return
          </CharString>
          <CharString index="197">
            vvcurveto
            73 43 58 82 53 34 -26 -33 28 vhcurveto
            29 27 rlineto
            38 -30 -45 33 -69 hhcurveto
            -105 -65 -65 -105 return
          </CharString>
          <CharString index="198">
            vstem
            54 91 rmoveto
            24 -19 138 161 rlineto
            38 vlineto
            -138 161 -24 -21 122 -159 rlineto
            return
          </CharString>
          <CharString index="199">
            184 callgsubr
            110 -106 rlineto
            return
          </CharString>
          <CharString index="200">
            34 334 34 hstem
            249 39 vstem
            56 return
          </CharString>
          <CharString index="201">
            -51 6 31 -68 82 hhcurveto
            return
          </CharString>
          <CharString index="202">
            37 35 -6 hvcurveto
            -33 hlineto
            return
          </CharString>
          <CharString index="203">
            -44 -32 -27 -42 -42 vvcurveto
            return
          </CharString>
          <CharString index="204">
            rmoveto
            34 197 callgsubr
            62 -138 rmoveto
            33 197 callgsubr
            endchar
          </CharString>
          <CharString index="205">
            77 -19 callgsubr
            102 -50 callgsubr
            -12 -20 return
          </CharString>
          <CharString index="206">
            68 -12 39 426 18 -18 39 return
          </CharString>
          <CharString index="207">
            65 154 callgsubr
            return
          </CharString>
          <CharString index="208">
            -25 95 callsubr
            return
          </CharString>
          <CharString index="209">
            169 0 63 533 63 return
          </CharString>
          <CharString index="210">
            42 629 -20 return
          </CharString>
          <CharString index="211">
            82 31 101 callgsubr
            -26 -44 -54 hhcurveto
            -53 -27 44 43 -6 hvcurveto
            -33 hlineto
            return
          </CharString>
          <CharString index="212">
            -111 570 rmoveto
            36 hlineto
            73 69 -20 callsubr
            73 -69 rlineto
            36 hlineto
            -91 100 rlineto
            -40 hlineto
            return
          </CharString>
          <CharString index="213">
            38 450 rmoveto
            37 hlineto
            75 99 -20 callsubr
            74 212 callsubr
            return
          </CharString>
          <CharString index="214">
            333 232 36 hstem
            40 720 vstem
            40 232 rmoveto
            720 36 -720 hlineto
            endchar
          </CharString>
          <CharString index="215">
            8 156 rlineto
            50 -38 vlineto
            3 -206 rlineto
            endchar
          </CharString>
          <CharString index="216">
            99 callsubr
            80 136 hstemhm
            52 46 339 46 -37 40 hintmask 10111100
            return
          </CharString>
          <CharString index="217">
            33 204 30 99 36 hstem
            274 39 vstem
            40 return
          </CharString>
          <CharString index="218">
            71 callsubr
            hstemhm
            92 44 return
          </CharString>
          <CharString index="219">
            33 21 150 callsubr
            return
          </CharString>
          <CharString index="220">
            hhcurveto
            -55 -27 44 44 -6 hvcurveto
            -31 hlineto
            return
          </CharString>
          <CharString index="221" raw="1">
            9a98a1a1 7c990b  
          </CharString>
          <CharString index="222">
            -62 -12 38 428 38 return
          </CharString>
          <CharString index="223">
            hlineto
            34 4 16 23 return
          </CharString>
          <CharString index="224">
            vstem
            61 269 rmoveto
            return
          </CharString>
          <CharString index="225">
            -29 callgsubr
            73 183 callgsubr
            54 29 202 29 54 48 return
          </CharString>
          <CharString index="226">
            232 36 hstem
            40 400 vstem
            40 232 rmoveto
            400 36 -400 hlineto
            endchar
          </CharString>
          <CharString index="227">
            rmoveto
            39 hlineto
            70 14 callsubr
          </CharString>
          <CharString index="228">
            57 callsubr
            endchar
          </CharString>
          <CharString index="229">
            162 callgsubr
            -5 -11 -21 -22 hhcurveto
            return
          </CharString>
          <CharString index="230">
            141 callgsubr
            -26 -43 -54 hhcurveto
            -53 -27 43 43 -6 hvcurveto
            -33 hlineto
            -51 6 return
          </CharString>
          <CharString index="231">
            rmoveto
            2 hlineto
            477 253 rlineto
            4 vlineto
            -477 251 rlineto
            -2 hlineto
            endchar
          </CharString>
          <CharString index="232">
            126 82 49 101 70 -51 40 -72 13 hvcurveto
            return
          </CharString>
          <CharString index="233">
            vstem
            55 257 rmoveto
            -167 return
          </CharString>
          <CharString index="234">
            vstem
            155 callsubr
            return
          </CharString>
          <CharString index="235">
            rmoveto
            158 callgsubr
            return
          </CharString>
          <CharString index="236">
            303 0 56 545 58 return
          </CharString>
          <CharString index="237">
            rmoveto
            18 14 13 18 18 -14 13 -18 -18 -14 -13 -18 -18 14 -13 18 hvcurveto
            return
          </CharString>
          <CharString index="238">
            rmoveto
            -47 hlineto
            86 -106 rlineto
            33 hlineto
            return
          </CharString>
          <CharString index="239">
            66 hstem
            176 38 vstem
            176 return
          </CharString>
          <CharString index="240">
            32 68 51 5 163 callsubr
            return
          </CharString>
          <CharString index="241">
            38 3 hvcurveto
            -29 hlineto
            -30 return
          </CharString>
          <CharString index="242">
            -21 512 -20 return
          </CharString>
          <CharString index="243">
            21 15 16 21 20 -15 190 callgsubr
            return
          </CharString>
          <CharString index="244">
            rmoveto
            38 10 41 207 callgsubr
            -46 18 -59 2 vhcurveto
            -6 -30 rlineto
            49 return
          </CharString>
          <CharString index="245">
            -238 -229 38 -5 -21 697 -20 return
          </CharString>
          <CharString index="246">
            151 callgsubr
            hstem
            97 46 return
          </CharString>
          <CharString index="247">
            88 140 140 return
          </CharString>
          <CharString index="248">
            111 -98 36 hstemhm
            return
          </CharString>
          <CharString index="249">
            22 -66 2 vhcurveto
            return
          </CharString>
          <CharString index="250">
            42 callgsubr
            -51 return
          </CharString>
          <CharString index="251">
            rmoveto
            -58 182 callsubr
          </CharString>
          <CharString index="252">
            41 25 -57 53 hhcurveto
            endchar
          </CharString>
          <CharString index="253">
            hhcurveto
            47 21 39 60 callsubr
            -15 -21 hhcurveto
            return
          </CharString>
          <CharString index="254">
            73 hstem
            -115 73 84 73 vstem
            -79 return
          </CharString>
          <CharString index="255">
            rmoveto
            -54 hlineto
            109 -106 rlineto
            39 hlineto
            return
          </CharString>
          <CharString index="256">
            107 -19 callgsubr
            102 41 454 41 return
          </CharString>
          <CharString index="257">
            -21 228 36 210 38 return
          </CharString>
          <CharString index="258">
            -35 -6 -25 -37 -51 hhcurveto
            -52 return
          </CharString>
          <CharString index="259">
            40 619 -20 hstem
            97 46 return
          </CharString>
          <CharString index="260">
            -4 -17 hhcurveto
            -26 -25 17 35 return
          </CharString>
          <CharString index="261">
            rmoveto
            228 33 -228 hlineto
            return
          </CharString>
          <CharString index="262">
            -41 callgsubr
            -159 return
          </CharString>
          <CharString index="263">
            75 hstem
            44 71 vstem
            44 return
          </CharString>
          <CharString index="264">
            -50 0 39 473 -20 return
          </CharString>
          <CharString index="265">
            hstemhm
            55 48 368 48 return
          </CharString>
          <CharString index="266">
            hlineto
            35 4 12 20 return
          </CharString>
          <CharString index="267">
            vstem
            92 hmoveto
            44 return
          </CharString>
          <CharString index="268">
            62 -19 callgsubr
            102 40 -7 -24 callsubr
            hstemhm
            85 44 return
          </CharString>
          <CharString index="269">
            69 -20 callsubr
            73 -69 rlineto
            36 hlineto
            -90 100 rlineto
            -41 hlineto
            return
          </CharString>
          <CharString index="270">
            hvcurveto
            -33 hlineto
            -43 return
          </CharString>
          <CharString index="271">
            -106 rlineto
            41 hlineto
            return
          </CharString>
          <CharString index="272">
            576 31 60 28 hstem
            -119 31 176 31 vstem
            return
          </CharString>
          <CharString index="273">
            356 708 19 callsubr
            return
          </CharString>
          <CharString index="274">
            269 473 hstem
            58 37 vstem
            58 269 rmoveto
            37 return
          </CharString>
          <CharString index="275">
            -14 30 hhcurveto
            76 64 64 109 98 -43 63 -87 -41 return
          </CharString>
          <CharString index="276">
            531 hstem
            114 39 vstem
            41 return
          </CharString>
          <CharString index="277">
            68 51 6 hvcurveto
            -31 hlineto
            -44 -6 return
          </CharString>
          <CharString index="278">
            30 hlineto
            35 5 11 20 22 hhcurveto
            return
          </CharString>
          <CharString index="279">
            -136 rlineto
            38 hlineto
            return
          </CharString>
          <CharString index="280">
            114 rlineto
            -39 hlineto
            return
          </CharString>
          <CharString index="281">
            -188 -152 29 return
          </CharString>
          <CharString index="282">
            -12 37 589 37 return
          </CharString>
          <CharString index="283">
            39 426 39 return
          </CharString>
          <CharString index="284">
            290 245 40 -245 249 295 40 return
          </CharString>
          <CharString index="285">
            165 -97 102 -135 -136 -96 -102 -165 return
          </CharString>
          <CharString index="286">
            vmoveto
            82 31 101 callgsubr
            -27 return
          </CharString>
          <CharString index="287">
            -55 48 214 callsubr
            return
          </CharString>
          <CharString index="288">
            -36 hlineto
            hintmask 11010000
            -30 -17 return
          </CharString>
          <CharString index="289">
            hlineto
            -93 164 callsubr
            endchar
          </CharString>
          <CharString index="290">
            -205 37 189 -21 return
          </CharString>
          <CharString index="291">
            5 0 38 436 38 return
          </CharString>
          <CharString index="292">
            411 38 -411 hlineto
            return
          </CharString>
          <CharString index="293">
            hstem
            66 38 vstem
            152 return
          </CharString>
          <CharString index="294">
            2 3 9 vhcurveto
            return
          </CharString>
          <CharString index="295">
            38 460 38 return
          </CharString>
          <CharString index="296">
            -16 22 hvcurveto
            endchar
          </CharString>
          <CharString index="297">
            135 77 -46 -94 -106 -81 -48 -131 hvcurveto
            return
          </CharString>
          <CharString index="298">
            84 callsubr
            259 -20 hstem
            92 44 return
          </CharString>
          <CharString index="299">
            vlineto
            176 92 rlineto
            36 vlineto
            -176 -92 rlineto
            return
          </CharString>
          <CharString index="300">
            21 -21 191 38 344 66 0 -20 hstemhm
            return
          </CharString>
          <CharString index="301">
            -21 -16 -14 -23 -22 16 -14 21 hvcurveto
            endchar
          </CharString>
          <CharString index="302">
            81 callgsubr
            endchar
          </CharString>
          <CharString index="303">
            hhcurveto
            -33 callsubr
            return
          </CharString>
          <CharString index="304">
            20 -59 2 vhcurveto
            -4 -29 rlineto
            return
          </CharString>
          <CharString index="305">
            92 hmoveto
            44 480 -44 hlineto
            return
          </CharString>
          <CharString index="306">
            103 callgsubr
            hstem
            95 46 return
          </CharString>
          <CharString index="307">
            103 callsubr
            hstem
            95 46 return
          </CharString>
          <CharString index="308">
            -34 -28 55 -49 hhcurveto
            return
          </CharString>
          <CharString index="309">
            -203 35 156 return
          </CharString>
          <CharString index="310">
            -12 176 callsubr
            return
          </CharString>
          <CharString index="311">
            -29 rlineto
            48 -2 23 return
          </CharString>
          <CharString index="312">
            -21 659 -20 return
          </CharString>
          <CharString index="313">
            rmoveto
            48 13 46 return
          </CharString>
          <CharString index="314">
            22 20 17 28 return
          </CharString>
          <CharString index="315">
            hintmask 11011100
            131 -46 vlineto
            hintmask 11101100
            -131 return
          </CharString>
          <CharString index="316">
            111 63 -33 -71 -86 -72 -28 -102 hvcurveto
            return
          </CharString>
          <CharString index="317">
            111 21 -21 252 40 220 -20 return
          </CharString>
          <CharString index="318">
            vhcurveto
            29 -28 rlineto
            48 39 52 36 58 hhcurveto
            return
          </CharString>
          <CharString index="319">
            -99 rlineto
            37 55 callsubr
            return
          </CharString>
          <CharString index="320">
            0 40 573 38 hstem
            356 45 vstem
            return
          </CharString>
          <CharString index="321">
            hhcurveto
            48 47 callgsubr
            return
          </CharString>
          <CharString index="322">
            93 21 151 callgsubr
            50 return
          </CharString>
          <CharString index="323">
            153 -24 550 hstem
            290 39 vstem
            return
          </CharString>
          <CharString index="324">
            41 25 -57 52 hhcurveto
            endchar
          </CharString>
          <CharString index="325">
            -103 -164 hvcurveto
            return
          </CharString>
        <CharString name=".notdef">
          165 0 39 580 41 hstem
          94 45 352 47 vstem
          94 hmoveto
          444 660 -444 hlineto
          45 -576 rmoveto
          516 vlineto
          147 -260 rlineto
          60 hmoveto
          145 260 rlineto
          -516 vlineto
          -333 -45 rmoveto
          95 164 61 105 -20 callsubr
          59 -105 93 -164 rlineto
          -156 333 rmoveto
          -54 92 -87 155 rlineto
          284 hlineto
          -86 -155 -53 -92 rlineto
          endchar
        </CharString>
        <CharString name="A">
          -65 callgsubr
          hstem
          8 510 vstem
          146 265 -105 callgsubr
        </CharString>
        <CharString name="A.sc">
          -65 callsubr
          hstem
          8 435 vstem
          130 205 -104 callgsubr
        </CharString>
        <CharString name="A.sups">
          -119 412 32 223 34 hstem
          2 345 vstem
          100 444 rmoveto
          26 75 17 51 15 45 15 52 rlinecurve
          2 hlineto
          16 -50 15 -46 17 -52 25 -75 rcurveline
          59 -175 rmoveto
          40 hlineto
          -151 432 rlineto
          -41 hlineto
          -153 -432 rlineto
          38 hlineto
          49 143 rlineto
          170 hlineto
          endchar
        </CharString>
        <CharString name="AE">
          342 0 40 177 38 75 40 249 40 hstem
          411 46 vstem
          210 255 rmoveto
          73 133 42 79 41 78 41 74 rlinecurve
          4 -364 hlineto
          46 -215 rmoveto
          177 callsubr
          -366 vlineto
          -365 -659 rlineto
          49 hlineto
          119 217 rlineto
          222 -217 351 40 hlineto
          endchar
        </CharString>
        <CharString name="AE.sc">
          227 0 38 123 37 55 37 184 38 hstem
          349 46 vstem
          184 198 rmoveto
          59 100 34 59 36 61 33 57 rlinecurve
          3 -277 hlineto
          46 -160 rmoveto
          178 callgsubr
          -314 vlineto
          -303 -512 rlineto
          47 hlineto
          95 161 rlineto
          186 -161 299 38 hlineto
          endchar
        </CharString>
        <CharString name="Aacute">
          -65 callgsubr
          50 106 hstem
          8 510 vstem
          376 815 -33 callgsubr
          40 hlineto
          -120 -444 -105 callgsubr
        </CharString>
        <CharString name="Aacute.sc">
          -65 callsubr
          78 106 hstem
          8 435 vstem
          338 696 -33 callgsubr
          41 hlineto
          -99 -385 -104 callgsubr
        </CharString>
        <CharString name="Abreve">
          -65 callgsubr
          52 32 hstem
          148 32 63 callgsubr
          -232 -550 -105 callgsubr
        </CharString>
        <CharString name="Abreve.sc">
          -65 callsubr
          80 32 hstem
          110 33 vstem
          308 696 rmoveto
          49 callsubr
          76 33 59 45 6 hvcurveto
          -210 -491 -104 callgsubr
        </CharString>
        <CharString name="Acircumflex">
          -65 callgsubr
          122 34 hstem
          8 510 vstem
          261 781 rmoveto
          4 hlineto
          75 -72 -87 callsubr
          40 hlineto
          -40 -444 -105 callgsubr
        </CharString>
        <CharString name="Acircumflex.sc">
          -65 callsubr
          151 33 hstem
          8 435 vstem
          223 663 rmoveto
          4 hlineto
          75 -73 -87 callsubr
          40 hlineto
          -18 -385 -104 callgsubr
        </CharString>
        <CharString name="Adieresis">
          -65 callgsubr
          66 73 hstem
          147 74 84 73 vstem
          342 725 rmoveto
          20 26 callgsubr
          -20 -21 -16 -14 -23 -22 16 -14 21 hvcurveto
          -158 23 callgsubr
          -38 -460 -105 callgsubr
        </CharString>
        <CharString name="Adieresis.sc">
          -65 callsubr
          94 73 hstem
          110 73 84 74 vstem
          304 606 rmoveto
          -53 callgsubr
          -158 hmoveto
          170 callgsubr
          -20 -16 -14 -23 -22 16 -14 20 hvcurveto
          -16 -401 -104 callgsubr
        </CharString>
        <CharString name="Agrave">
          -65 callgsubr
          50 106 hstem
          8 510 vstem
          300 709 184 callgsubr
          109 -106 rlineto
          -113 -444 -105 callgsubr
        </CharString>
        <CharString name="Agrave.sc">
          -65 callsubr
          78 106 hstem
          8 435 vstem
          262 590 92 callsubr
          -92 -385 -104 callgsubr
        </CharString>
        <CharString name="Amacron">
          -65 callgsubr
          75 36 hstem
          149 228 vstem
          377 770 44 callgsubr
          -231 -469 -105 callgsubr
        </CharString>
        <CharString name="Amacron.sc">
          -65 callsubr
          103 36 hstem
          111 228 vstem
          339 651 44 callgsubr
          -209 -410 -104 callgsubr
        </CharString>
        <CharString name="Aogonek">
          59 -205 37 189 -51 callsubr
          hstem
          405 39 vstem
          146 265 rmoveto
          42 123 27 78 23 69 23 81 rlinecurve
          4 hlineto
          23 -81 23 -69 27 -78 42 -123 rcurveline
          158 -419 rmoveto
          -10 -13 -13 153 callsubr
          41 33 48 41 27 hvcurveto
          -232 659 rlineto
          -46 hlineto
          -232 -659 rlineto
          46 hlineto
          78 226 rlineto
          261 hlineto
          77 -226 rlineto
          6 hlineto
          -35 -25 -36 -48 -50 vvcurveto
          -55 38 -27 46 22 28 11 13 15 vhcurveto
          endchar
        </CharString>
        <CharString name="Aogonek.sc">
          -16 -205 37 189 -51 callgsubr
          hstem
          330 39 vstem
          130 205 rmoveto
          34 93 22 61 17 49 20 60 rlinecurve
          4 hlineto
          20 -59 18 -50 22 -61 34 -93 rcurveline
          142 -359 rmoveto
          -10 -14 -12 -4 -18 hhcurveto
          -25 -25 17 35 41 32 48 42 27 hvcurveto
          -194 512 rlineto
          -47 hlineto
          -194 -512 rlineto
          46 hlineto
          62 168 rlineto
          218 hlineto
          61 -168 rlineto
          6 hlineto
          -36 -25 -35 -48 -50 vvcurveto
          -55 37 -27 47 22 28 11 13 15 vhcurveto
          endchar
        </CharString>
        <CharString name="Aring">
          -65 callgsubr
          41 26 112 26 hstem
          181 29 103 32 vstem
          263 838 rmoveto
          27 23 -21 -35 -37 -23 -19 -27 -29 -24 19 37 35 24 21 29 hvcurveto
          -138 vmoveto
          45 37 32 50 49 -37 33 -45 -47 -35 -33 -49 -50 35 -32 47 hvcurveto
          -117 -435 -105 callgsubr
        </CharString>
        <CharString name="Aring.sc">
          -65 callsubr
          69 26 112 26 hstem
          143 30 103 31 vstem
          225 719 rmoveto
          28 23 -21 -35 -37 -23 -19 -28 -29 -23 19 37 35 23 21 29 hvcurveto
          -138 vmoveto
          45 37 33 49 49 -37 33 -45 -47 -35 -33 -49 -49 35 -33 47 hvcurveto
          -95 -376 -104 callgsubr
        </CharString>
        <CharString name="Atilde">
          -65 callgsubr
          57 109 callgsubr
          133 29 202 28 vstemhm
          364 808 rmoveto
          -34 -4 -16 -22 -22 hhcurveto
          hintmask 11101110
          -40 -26 56 -52 -39 callgsubr
          hintmask 11111110
          41 25 148 callgsubr
          -246 -543 -105 callgsubr
        </CharString>
        <CharString name="Atilde.sc">
          -65 callsubr
          85 109 callgsubr
          96 28 202 29 vstemhm
          326 689 rmoveto
          156 callgsubr
          hintmask 11101110
          -35 callgsubr
          hintmask 11111110
          193 callgsubr
          -225 -484 -104 callgsubr
        </CharString>
        <CharString name="B">
          111 0 38 294 37 252 38 hstemhm
          97 46 304 46 -5 45 hintmask 11110100
          122 callgsubr
          hintmask 11111000
          27 callsubr
          hintmask 11110100
          190 callsubr
          endchar
        </CharString>
        <CharString name="B.sc">
          47 0 36 218 34 188 36 hstemhm
          97 46 249 43 -10 44 hintmask 11110100
          97 hmoveto
          164 hlineto
          125 callsubr
          4 vlineto
          hintmask 11111000
          38 callgsubr
          hintmask 11110100
          209 callsubr
          endchar
        </CharString>
        <CharString name="B.sups">
          -85 269 31 183 30 157 31 hstemhm
          61 39 192 38 -12 38 hintmask 11110100
          61 269 rmoveto
          131 hlineto
          99 65 42 84 60 -39 35 -64 10 hvcurveto
          3 vlineto
          hintmask 11111000
          51 12 26 37 44 vvcurveto
          73 -58 32 -88 vhcurveto
          -123 hlineto
          39 -188 rmoveto
          157 76 vlineto
          77 39 -22 -53 -55 -34 -27 -85 hvcurveto
          -73 -213 rmoveto
          183 84 vlineto
          hintmask 11110100
          86 48 -28 -60 -68 -50 -27 -84 hvcurveto
          endchar
        </CharString>
        <CharString name="C">
          97 -43 callsubr
          hstem
          55 48 -86 callsubr
          endchar
        </CharString>
        <CharString name="C.sc">
          27 -12 41 454 41 hstem
          55 48 -83 callgsubr
          endchar
        </CharString>
        <CharString name="C.sups">
          -95 261 34 381 33 hstem
          33 41 vstem
          33 485 rmoveto
          -138 78 -86 109 56 41 24 37 33 vhcurveto
          -22 24 rlineto
          -33 -30 -33 -18 -44 hhcurveto
          -91 -56 74 118 114 58 75 92 38 31 -17 -26 24 hvcurveto
          22 24 rlineto
          28 -24 -40 24 -52 hhcurveto
          -111 -79 -87 -137 hvcurveto
          endchar
        </CharString>
        <CharString name="Cacute">
          97 -43 callsubr
          38 106 hstem
          55 48 -86 callsubr
          381 484 -33 callgsubr
          40 hlineto
          endchar
        </CharString>
        <CharString name="Cacute.sc">
          27 -12 41 454 41 66 106 hstem
          55 48 -83 callgsubr
          346 439 144 callsubr
        </CharString>
        <CharString name="Ccaron">
          97 -43 callsubr
          38 34 hstem
          55 48 -86 callsubr
          345 484 -98 callgsubr
        </CharString>
        <CharString name="Ccaron.sc">
          27 -12 41 454 41 66 34 hstem
          55 48 -83 callgsubr
          310 439 -98 callgsubr
        </CharString>
        <CharString name="Ccedilla">
          97 -43 callsubr
          hstem
          55 48 255 39 vstem
          499 111 rmoveto
          -54 -48 -50 -27 -68 hhcurveto
          -142 -88 118 183 183 89 115 145 60 48 -27 -40 35 hvcurveto
          28 30 rlineto
          41 -35 -60 38 -76 hhcurveto
          -168 -114 -131 -209 -207 110 -132 159 -4 hvcurveto
          -33 -62 rlineto
          -48 callgsubr
          22 43 71 8 52 34 45 51 rlinecurve
          endchar
        </CharString>
        <CharString name="Ccedilla.sc">
          27 -208 30 167 40 454 41 hstem
          55 48 202 40 vstem
          429 90 rmoveto
          -41 -38 -42 -20 -57 hhcurveto
          -117 -72 87 141 139 73 87 120 50 38 -21 -31 30 hvcurveto
          27 30 rlineto
          33 -31 -50 30 -64 hhcurveto
          -143 -98 -103 -164 -160 88 -100 129 -8 hvcurveto
          -33 -63 rlineto
          38 -10 28 -13 -30 vvcurveto
          -28 -37 -15 -55 -8 vhcurveto
          6 -30 rlineto
          65 8 61 25 52 vvcurveto
          40 -28 18 -32 11 vhcurveto
          22 43 63 3 45 26 41 44 rlinecurve
          endchar
        </CharString>
        <CharString name="Ccircumflex">
          97 -43 callsubr
          110 34 hstem
          55 48 -86 callsubr
          191 378 rmoveto
          75 72 130 callgsubr
          -72 -87 callsubr
          endchar
        </CharString>
        <CharString name="Ccircumflex.sc">
          27 -12 41 454 41 139 33 hstem
          55 48 -83 callgsubr
          156 333 rmoveto
          75 73 130 callgsubr
          -73 -87 callsubr
          endchar
        </CharString>
        <CharString name="Cdotaccent">
          97 -43 callsubr
          50 80 hstem
          55 48 180 80 -86 callsubr
          268 390 rmoveto
          -1 callgsubr
        </CharString>
        <CharString name="Cdotaccent.sc">
          27 -12 41 454 41 78 81 hstem
          55 48 144 81 -83 callgsubr
          233 345 rmoveto
          22 18 17 24 23 -18 17 -22 -22 -19 -17 -23 -24 19 -17 22 hvcurveto
          endchar
        </CharString>
        <CharString name="D">
          137 0 39 581 39 hstem
          97 46 358 -69 callsubr
          endchar
        </CharString>
        <CharString name="D.sc">
          73 0 37 438 37 hstem
          97 46 294 48 vstem
          -63 callgsubr
          endchar
        </CharString>
        <CharString name="D.sups">
          -65 269 32 368 32 hstem
          61 39 227 40 117 callsubr
          106 hlineto
          133 67 85 133 132 -67 82 -134 hvcurveto
          -105 hlineto
          39 -400 rmoveto
          368 63 vlineto
          112 52 -70 -112 -112 -51 -74 -110 hvcurveto
          endchar
        </CharString>
        <CharString name="Dcaron">
          137 0 39 581 39 50 34 hstem
          97 46 358 -69 callsubr
          134 776 -98 callgsubr
        </CharString>
        <CharString name="Dcaron.sc">
          72 0 37 438 37 78 34 hstem
          97 46 294 48 vstem
          -63 callgsubr
          127 659 -98 callgsubr
        </CharString>
        <CharString name="Dcroat">
          -32 callsubr
        </CharString>
        <CharString name="Dcroat.sc">
          -24 callgsubr
        </CharString>
        <CharString name="E">
          -52 callgsubr
          hstem
          97 46 vstem
          -96 callgsubr
          endchar
        </CharString>
        <CharString name="E.sc">
          -52 callsubr
          hstem
          97 46 vstem
          -96 callsubr
          endchar
        </CharString>
        <CharString name="E.sups">
          -126 269 32 181 33 154 32 hstem
          61 39 117 callsubr
          250 32 -211 181 173 33 -173 154 205 32 -244 hlineto
          endchar
        </CharString>
        <CharString name="Eacute">
          -52 callgsubr
          50 106 hstem
          97 46 vstem
          -96 callgsubr
          298 156 -33 callgsubr
          40 hlineto
          endchar
        </CharString>
        <CharString name="Eacute.sc">
          -52 callsubr
          78 106 hstem
          97 46 vstem
          -96 callsubr
          278 184 -33 callgsubr
          40 hlineto
          endchar
        </CharString>
        <CharString name="Ebreve">
          -52 callgsubr
          52 32 hstemhm
          97 46 24 33 hintmask 11111000
          -96 callgsubr
          hintmask 11111100
          185 180 callgsubr
          -25 -37 -51 hhcurveto
          -52 -24 95 callsubr
          -46 6 33 -58 76 hhcurveto
          endchar
        </CharString>
        <CharString name="Ebreve.sc">
          -52 callsubr
          80 32 hstemhm
          97 46 4 33 hintmask 11111000
          -96 callsubr
          hintmask 11110100
          165 80 rmoveto
          76 33 59 45 23 callsubr
          -45 6 218 callgsubr
        </CharString>
        <CharString name="Ecaron">
          -52 callgsubr
          -40 196 -106 34 hstemhm
          97 46 hintmask 11100100
          -96 callgsubr
          hintmask 11010100
          262 156 rmoveto
          hintmask 11101100
          -75 -72 rlineto
          -4 hlineto
          hintmask 11010100
          -75 72 rlineto
          -40 hlineto
          hintmask 11101100
          96 -106 rlineto
          42 hlineto
          hintmask 11010100
          96 106 rlineto
          endchar
        </CharString>
        <CharString name="Ecaron.sc">
          -52 callsubr
          78 34 hstem
          97 46 vstem
          -96 callsubr
          242 184 -98 callgsubr
        </CharString>
        <CharString name="Ecircumflex">
          -52 callgsubr
          122 34 hstem
          97 46 vstem
          -96 callgsubr
          108 50 rmoveto
          75 72 130 callgsubr
          -72 -87 callsubr
          endchar
        </CharString>
        <CharString name="Ecircumflex.sc">
          -52 callsubr
          151 33 hstem
          97 46 vstem
          -96 callsubr
          88 78 rmoveto
          75 73 130 callgsubr
          -73 -87 callsubr
          endchar
        </CharString>
        <CharString name="Edieresis">
          -52 callgsubr
          66 73 hstemhm
          97 46 23 74 84 73 hintmask 11101000
          -96 callgsubr
          hintmask 11111110
          106 66 rmoveto
          -53 callgsubr
          158 hmoveto
          21 15 14 22 23 -15 -67 callgsubr
          endchar
        </CharString>
        <CharString name="Edieresis.sc">
          -52 callsubr
          94 73 hstemhm
          97 46 4 73 84 73 hintmask 11101000
          -96 callsubr
          hintmask 11110110
          86 94 -60 callsubr
        </CharString>
        <CharString name="Edotaccent">
          -52 callgsubr
          62 80 hstem
          97 46 99 80 vstem
          -96 callgsubr
          185 62 rmoveto
          -1 callgsubr
        </CharString>
        <CharString name="Edotaccent.sc">
          -52 callsubr
          90 81 hstem
          97 46 79 80 vstem
          -96 callsubr
          165 90 -7 callsubr
        </CharString>
        <CharString name="Egrave">
          -52 callgsubr
          50 106 hstem
          97 46 vstem
          -96 callgsubr
          181 50 rmoveto
          41 hlineto
          62 callgsubr
          endchar
        </CharString>
        <CharString name="Egrave.sc">
          -52 callsubr
          78 106 hstem
          97 46 vstem
          -96 callsubr
          162 78 15 callsubr
        </CharString>
        <CharString name="Emacron">
          -52 callgsubr
          75 36 hstemhm
          97 46 25 228 hintmask 11111000
          -96 callgsubr
          hintmask 11111100
          71 75 -18 callsubr
        </CharString>
        <CharString name="Emacron.sc">
          -52 callsubr
          103 36 hstemhm
          97 46 5 228 hintmask 11111000
          -96 callsubr
          hintmask 11110100
          51 103 -18 callsubr
        </CharString>
        <CharString name="Eogonek">
          48 -205 37 168 40 290 40 249 40 hstem
          97 46 188 40 vstem
          97 hmoveto
          307 hlineto
          -39 -25 -34 -46 -52 vvcurveto
          9 callsubr
          -25 17 35 58 49 49 45 9 hvcurveto
          3 40 -325 290 264 40 -264 249 315 40 -361 hlineto
          endchar
        </CharString>
        <CharString name="Eogonek.sc">
          -6 -205 37 168 38 215 37 184 38 hstem
          97 46 135 39 vstem
          97 hmoveto
          254 hlineto
          -40 -25 -33 -46 -52 vvcurveto
          -55 38 -27 46 65 callgsubr
          -13 -13 -4 -17 hhcurveto
          -25 -26 17 35 58 50 49 45 9 hvcurveto
          2 38 -271 215 221 37 -221 184 261 38 -307 hlineto
          endchar
        </CharString>
        <CharString name="Eth">
          -32 callsubr
        </CharString>
        <CharString name="Eth.sc">
          -24 callgsubr
        </CharString>
        <CharString name="Euro">
          12 -12 38 220 33 77 33 224 38 hstem
          85 47 vstem
          445 107 rmoveto
          -54 -39 -40 -27 -55 hhcurveto
          -96 -62 85 135 -17 hvcurveto
          238 33 -241 hlineto
          -1 14 0 14 15 vvcurveto
          12 0 11 1 11 vhcurveto
          281 33 -278 hlineto
          139 15 66 85 106 hhcurveto
          46 37 -27 -40 29 hvcurveto
          29 27 rlineto
          42 -29 -52 36 -60 hhcurveto
          -129 -87 -99 -163 -18 hvcurveto
          -65 -4 rlineto
          -29 62 vlineto
          -1 -11 0 -12 -12 vvcurveto
          -14 0 -14 1 -14 vhcurveto
          -62 -4 rlineto
          -29 65 vlineto
          -159 20 82 -99 117 hhcurveto
          74 50 36 58 42 hvcurveto
          endchar
        </CharString>
        <CharString name="F">
          10 21 -21 317 40 262 40 20 callsubr
          317 265 40 -265 262 313 40 -359 hlineto
          endchar
        </CharString>
        <CharString name="F.sc">
          -43 21 -21 241 37 196 38 20 callsubr
          241 220 37 -220 196 261 38 -307 hlineto
          endchar
        </CharString>
        <CharString name="F.sups">
          -151 473 32 164 32 hstem
          61 39 117 callsubr
          39 204 173 32 -173 164 205 32 -244 hlineto
          endchar
        </CharString>
        <CharString name="G">
          15 callgsubr
          hstem
          55 48 386 44 vstem
          -100 callgsubr
          endchar
        </CharString>
        <CharString name="G.sc">
          30 callgsubr
          hstem
          55 48 315 44 vstem
          -99 callgsubr
          endchar
        </CharString>
        <CharString name="G.sups">
          -67 261 34 158 32 191 33 hstem
          33 41 246 35 vstem
          33 486 rmoveto
          -139 79 -86 113 57 46 21 28 27 vhcurveto
          175 -135 -32 100 -128 vlineto
          -18 -19 -36 -12 -37 hhcurveto
          -98 -56 74 118 115 60 74 96 47 30 -20 -23 22 hvcurveto
          22 25 rlineto
          24 -24 -38 27 -59 hhcurveto
          -116 -81 -87 -136 hvcurveto
          endchar
        </CharString>
        <CharString name="Gbreve">
          15 callgsubr
          40 32 hstem
          55 48 128 33 225 44 vstem
          -100 callgsubr
          291 380 rmoveto
          76 33 58 46 23 callsubr
          -46 6 33 -58 76 hhcurveto
          endchar
        </CharString>
        <CharString name="Gbreve.sc">
          30 callgsubr
          68 32 hstem
          55 48 83 33 199 44 vstem
          -99 callgsubr
          247 335 rmoveto
          75 33 59 45 7 hvcurveto
          -33 hlineto
          68 callgsubr
          -33 hlineto
          -45 7 218 callgsubr
        </CharString>
        <CharString name="Gcaron">
          15 callgsubr
          38 34 hstem
          55 48 386 44 vstem
          -100 callgsubr
          368 484 -98 callgsubr
        </CharString>
        <CharString name="Gcaron.sc">
          30 callgsubr
          66 34 hstem
          55 48 315 44 vstem
          -99 callgsubr
          323 439 rmoveto
          -74 111 callgsubr
          43 -17 callgsubr
        </CharString>
        <CharString name="Gcircumflex">
          15 callgsubr
          110 34 hstem
          55 48 386 44 vstem
          -100 callgsubr
          214 378 rmoveto
          75 72 130 callgsubr
          -72 -87 callsubr
          endchar
        </CharString>
        <CharString name="Gcircumflex.sc">
          30 callgsubr
          139 33 hstem
          55 48 315 44 vstem
          -99 callgsubr
          170 333 rmoveto
          75 73 -20 callsubr
          74 -73 rlineto
          41 hlineto
          -96 106 rlineto
          -43 2 callgsubr
          endchar
        </CharString>
        <CharString name="Gdotaccent">
          15 callgsubr
          50 80 hstem
          55 48 203 80 103 44 vstem
          -100 callgsubr
          291 390 rmoveto
          -1 callgsubr
        </CharString>
        <CharString name="Gdotaccent.sc">
          30 callgsubr
          78 81 hstem
          55 48 158 81 76 44 vstem
          -99 callgsubr
          247 345 rmoveto
          21 19 17 24 23 -19 17 -21 -22 -19 -17 -23 -24 19 -17 22 hvcurveto
          endchar
        </CharString>
        <CharString name="H">
          172 21 -21 330 40 289 -20 hstem
          97 46 353 1 callgsubr
          endchar
        </CharString>
        <CharString name="H.sc">
          210 callsubr
          hstem
          97 46 292 46 vstem
          7 callgsubr
          endchar
        </CharString>
        <CharString name="H.sups">
          -43 482 33 hstem
          61 39 224 39 117 callsubr
          39 213 224 -213 39 432 -39 -186 -224 186 -39 hlineto
          endchar
        </CharString>
        <CharString name="Hbar">
          205 21 -21 330 40 125 33 -33 164 hstemhm
          117 46 353 46 hintmask 11101100
          516 370 rmoveto
          -353 125 353 hlineto
          119 33 rmoveto
          -73 hlineto
          208 callsubr
          -353 vlineto
          208 callsubr
          vlineto
          -81 -4 rlineto
          -29 81 -495 46 330 353 -330 46 495 73 vlineto
          endchar
        </CharString>
        <CharString name="Hbar.sc">
          146 21 -21 253 38 92 31 -31 129 hstemhm
          117 46 292 46 hintmask 11101100
          455 291 rmoveto
          -292 92 292 hlineto
          121 31 rmoveto
          -75 hlineto
          hintmask 11011100
          98 -46 vlineto
          hintmask 11101100
          -98 -292 vlineto
          hintmask 11011100
          98 -46 vlineto
          hintmask 11101100
          -98 vlineto
          -81 -4 rlineto
          -27 81 -383 46 253 292 -253 46 383 75 vlineto
          endchar
        </CharString>
        <CharString name="Hcircumflex">
          172 21 -21 330 40 289 -20 142 34 hstem
          97 46 353 1 callgsubr
          145 50 rmoveto
          75 72 130 callgsubr
          -72 -87 callsubr
          endchar
        </CharString>
        <CharString name="Hcircumflex.sc">
          210 callsubr
          171 33 hstem
          97 46 292 46 vstem
          7 callgsubr
          115 78 rmoveto
          75 73 130 callgsubr
          -73 -87 callsubr
          endchar
        </CharString>
        <CharString name="I">
          55 callgsubr
          20 callsubr
          659 -46 hlineto
          endchar
        </CharString>
        <CharString name="I.a">
          45 callgsubr
          hstem
          133 46 vstem
          -74 callgsubr
          endchar
        </CharString>
        <CharString name="I.sc">
          56 callgsubr
          hstem
          97 46 vstem
          126 callgsubr
          endchar
        </CharString>
        <CharString name="I.sups">
          -306 167 callgsubr
          432 -39 hlineto
          endchar
        </CharString>
        <CharString name="Iacute">
          55 callgsubr
          70 106 20 callsubr
          659 -46 hlineto
          136 156 -33 callgsubr
          41 hlineto
          endchar
        </CharString>
        <CharString name="Iacute.a">
          45 callgsubr
          50 106 hstem
          133 46 vstem
          -74 callgsubr
          227 775 -33 callgsubr
          40 hlineto
          endchar
        </CharString>
        <CharString name="Iacute.sc">
          56 callgsubr
          98 106 hstem
          97 46 vstem
          126 callgsubr
          136 184 -33 callgsubr
          41 hlineto
          endchar
        </CharString>
        <CharString name="Icircumflex">
          55 callgsubr
          142 34 20 callsubr
          659 -46 hlineto
          -54 50 rmoveto
          75 72 130 callgsubr
          -72 -87 callsubr
          endchar
        </CharString>
        <CharString name="Icircumflex.a">
          45 callgsubr
          122 34 hstem
          133 46 vstem
          -74 callgsubr
          37 669 rmoveto
          75 72 130 callgsubr
          -72 -87 callsubr
          endchar
        </CharString>
        <CharString name="Icircumflex.sc">
          56 callgsubr
          171 33 hstem
          97 46 vstem
          126 callgsubr
          -54 78 rmoveto
          75 73 130 callgsubr
          -73 -87 callsubr
          endchar
        </CharString>
        <CharString name="Idieresis">
          55 callgsubr
          86 73 hstemhm
          5 73 19 46 19 74 hintmask 11101000
          97 hmoveto
          46 659 -46 hlineto
          hintmask 11111100
          -56 66 -23 callgsubr
        </CharString>
        <CharString name="Idieresis.a">
          45 callgsubr
          66 73 hstemhm
          41 74 18 46 20 73 hintmask 11001000
          -74 callgsubr
          hintmask 11111100
          35 685 rmoveto
          -53 callgsubr
          158 hmoveto
          20 26 callgsubr
          -20 194 callsubr
        </CharString>
        <CharString name="Idieresis.sc">
          56 callgsubr
          114 73 hstemhm
          5 73 19 46 19 74 hintmask 11101000
          126 callgsubr
          hintmask 11111100
          -56 94 -23 callgsubr
        </CharString>
        <CharString name="Idotaccent">
          55 callgsubr
          82 80 20 callsubr
          659 -46 hlineto
          23 62 rmoveto
          -1 callgsubr
        </CharString>
        <CharString name="Idotaccent.a">
          45 callgsubr
          62 80 hstemhm
          116 81 -64 46 hintmask 11001000
          -74 callgsubr
          hintmask 11110000
          114 681 121 callgsubr
        </CharString>
        <CharString name="Idotaccent.sc">
          56 callgsubr
          110 81 hstemhm
          80 80 -63 46 hintmask 11101000
          126 callgsubr
          hintmask 11110000
          23 90 -7 callsubr
        </CharString>
        <CharString name="Igrave">
          55 callgsubr
          70 106 20 callsubr
          659 -46 hlineto
          20 50 15 callsubr
        </CharString>
        <CharString name="Igrave.a">
          45 callgsubr
          50 106 hstem
          133 46 vstem
          -74 callgsubr
          110 669 rmoveto
          41 hlineto
          62 callgsubr
          endchar
        </CharString>
        <CharString name="Igrave.sc">
          56 callgsubr
          98 106 hstem
          97 46 vstem
          126 callgsubr
          20 78 15 callsubr
        </CharString>
        <CharString name="Imacron">
          55 callgsubr
          95 36 20 callsubr
          659 -46 hlineto
          -91 75 -18 callsubr
        </CharString>
        <CharString name="Imacron.a">
          45 callgsubr
          75 36 hstem
          133 46 vstem
          -74 callgsubr
          694 vmoveto
          228 36 -228 hlineto
          endchar
        </CharString>
        <CharString name="Imacron.sc">
          56 callgsubr
          123 36 hstem
          97 46 vstem
          126 callgsubr
          -91 103 -18 callsubr
        </CharString>
        <CharString name="Iogonek">
          -227 183 callsubr
          659 12 callsubr
          659 -46 vlineto
          endchar
        </CharString>
        <CharString name="Iogonek.a">
          -154 -205 37 168 40 579 40 hstemhm
          78 39 16 46 vstemhm
          43 hmoveto
          100 hlineto
          -34 -29 -31 -44 -50 vvcurveto
          -55 37 -27 47 65 callgsubr
          -14 -12 153 callsubr
          41 25 43 43 32 hvcurveto
          hintmask 11101000
          83 40 -89 579 89 40 -225 -40 90 -579 hlineto
          hintmask 11111000
          -90 hlineto
          endchar
        </CharString>
        <CharString name="Iogonek.sc">
          -227 183 callsubr
          512 12 callsubr
          512 -46 vlineto
          endchar
        </CharString>
        <CharString name="Itilde">
          55 callgsubr
          77 109 callgsubr
          -9 28 78 46 78 29 hintmask 11011110
          97 hmoveto
          46 659 -46 hlineto
          hintmask 11111110
          82 57 41 callsubr
          hintmask 11011110
          -35 callgsubr
          hintmask 11111110
          146 callgsubr
        </CharString>
        <CharString name="Itilde.a">
          45 callgsubr
          57 109 callgsubr
          27 29 77 46 79 28 hintmask 11011110
          -74 callgsubr
          hintmask 11111110
          172 676 rmoveto
          -33 callsubr
          -28 hlineto
          -34 -4 -16 -22 -22 hhcurveto
          hintmask 11011110
          -40 -26 56 -52 -39 callgsubr
          hintmask 11111110
          217 callsubr
        </CharString>
        <CharString name="Itilde.sc">
          56 callgsubr
          105 109 callgsubr
          -9 28 78 46 78 29 hintmask 11011110
          126 callgsubr
          hintmask 11111110
          82 85 78 callgsubr
          hintmask 11011110
          -35 callgsubr
          hintmask 11111110
          146 callgsubr
        </CharString>
        <CharString name="J">
          -5 36 callsubr
          50 callsubr
          endchar
        </CharString>
        <CharString name="J.sc">
          -48 37 callgsubr
          52 callsubr
          endchar
        </CharString>
        <CharString name="J.sups">
          -159 261 34 hstem
          210 38 vstem
          23 326 rmoveto
          -41 23 36 -24 51 hhcurveto
          82 33 57 72 hvcurveto
          311 -38 -308 vlineto
          -68 -26 -30 -52 -34 -26 14 36 -21 vhcurveto
          endchar
        </CharString>
        <CharString name="Jcircumflex">
          -5 36 callsubr
          142 34 50 callsubr
          188 601 rmoveto
          75 72 130 callgsubr
          -72 -87 callsubr
          endchar
        </CharString>
        <CharString name="Jcircumflex.sc">
          -48 37 callgsubr
          171 33 52 callsubr
          144 500 rmoveto
          75 73 130 callgsubr
          -73 -87 callsubr
          endchar
        </CharString>
        <CharString name="K">
          91 62 callsubr
          hstem
          97 46 -20 callgsubr
          endchar
        </CharString>
        <CharString name="K.sc">
          24 61 callsubr
          hstem
          97 46 vstem
          -16 callsubr
          endchar
        </CharString>
        <CharString name="K.sups">
          -96 167 callgsubr
          146 hlineto
          85 96 140 -242 rlineto
          43 hlineto
          -158 271 139 161 rlineto
          -45 hlineto
          -202 -232 rlineto
          -2 232 -39 hlineto
          endchar
        </CharString>
        <CharString name="L">
          0 0 152 callsubr
          69 callsubr
          endchar
        </CharString>
        <CharString name="L.sc">
          157 callsubr
          hstem
          97 46 42 callsubr
          endchar
        </CharString>
        <CharString name="L.sups">
          -157 269 32 hstem
          61 39 117 callsubr
          237 32 -198 400 -39 hlineto
          endchar
        </CharString>
        <CharString name="Lacute">
          0 0 40 619 -20 70 106 hstem
          97 46 69 callsubr
          138 156 35 callsubr
          endchar
        </CharString>
        <CharString name="Lacute.sc">
          157 callsubr
          98 106 hstem
          97 46 42 callsubr
          142 184 -33 callgsubr
          40 hlineto
          endchar
        </CharString>
        <CharString name="Lcaron">
          0 0 152 callsubr
          178 32 69 callsubr
          252 -142 rmoveto
          8 156 1 50 rlineto
          -38 hlineto
          2 -206 rlineto
          endchar
        </CharString>
        <CharString name="Lcaron.sc">
          157 callsubr
          hstem
          97 46 154.5 36.5 42 callsubr
          229 -113 rmoveto
          108 callsubr
        </CharString>
        <CharString name="Ldot">
          0 0 40 238 91 290 -20 hstem
          97 46 172 85 69 callsubr
          218 -336 51 callgsubr
        </CharString>
        <CharString name="Ldot.sc">
          -50 0 39 185 91 197 -20 hstem
          97 46 142 85 42 callsubr
          188 -243 rmoveto
          -54 callsubr
          endchar
        </CharString>
        <CharString name="Lslash">
          1 0 40 619 -20 hstem
          102 46 vstem
          148 40 rmoveto
          239 vlineto
          193 100 rlineto
          40 vlineto
          -193 -100 rlineto
          340 -46 -361 vlineto
          -88 -48 rlineto
          -40 vlineto
          88 47 rlineto
          -257 349 40 vlineto
          endchar
        </CharString>
        <CharString name="Lslash.sc">
          157 callsubr
          hstem
          102 46 vstem
          148 39 rmoveto
          171 vlineto
          163 86 rlineto
          39 vlineto
          -163 -86 rlineto
          263 -46 -284 vlineto
          -88 -47 rlineto
          -40 vlineto
          88 47 rlineto
          -188 298 39 vlineto
          endchar
        </CharString>
        <CharString name="M">
          239 21 -21 72 54 485 48 hstem
          97 43 424 -4 callgsubr
          endchar
        </CharString>
        <CharString name="M.sc">
          157 21 -21 54 54 356 48 hstem
          97 43 345 -5 callgsubr
          endchar
        </CharString>
        <CharString name="M.sups">
          2 313 50 294 44 hstem
          61 36 275 37 117 callsubr
          36 269 hlineto
          35 -3 47 -2 37 vhcurveto
          3 hlineto
          35 -95 91 -249 rlineto
          29 hlineto
          90 249 35 95 rlineto
          2 hlineto
          -2 -37 -3 -47 -35 vvcurveto
          -269 37 432 -51 vlineto
          -87 -245 -33 -93 rlineto
          -3 hlineto
          -34 93 -89 245 rlineto
          -51 hlineto
          endchar
        </CharString>
        <CharString name="N">
          102 callsubr
          hstem
          97 44 354 44 vstem
          -91 callgsubr
          endchar
        </CharString>
        <CharString name="N.sc">
          135 callgsubr
          hstem
          97 43 293 42 vstem
          -90 callsubr
          endchar
        </CharString>
        <CharString name="N.sups">
          -46 269 51 330 51 hstem
          61 36 228 36 117 callsubr
          36 256 hlineto
          42 -3 41 -1 42 vhcurveto
          2 hlineto
          50 -86 176 -295 rlineto
          40 432 -36 -252 hlineto
          -43 3 -45 2 -41 vhcurveto
          -3 hlineto
          -49 86 -175 295 rlineto
          -42 hlineto
          endchar
        </CharString>
        <CharString name="Nacute">
          102 callsubr
          50 106 hstem
          97 44 354 44 vstem
          -91 callgsubr
          338 156 35 callsubr
          endchar
        </CharString>
        <CharString name="Nacute.sc">
          135 callgsubr
          78 106 hstem
          97 43 293 42 vstem
          -90 callsubr
          310 184 35 callsubr
          endchar
        </CharString>
        <CharString name="Ncaron">
          102 callsubr
          50 34 hstem
          97 44 354 44 vstem
          -91 callgsubr
          302 156 rmoveto
          -74 111 callgsubr
          43 -17 callgsubr
        </CharString>
        <CharString name="Ncaron.sc">
          135 callgsubr
          78 34 hstem
          97 43 293 42 vstem
          -90 callsubr
          274 184 -98 callgsubr
        </CharString>
        <CharString name="Ntilde">
          102 callsubr
          57 109 callgsubr
          97 44 52 28 203 28 43 44 hintmask 11011111
          -91 callgsubr
          hintmask 11111111
          284 57 rmoveto
          -33 callsubr
          -28 hlineto
          -34 -5 -15 -22 -22 hhcurveto
          hintmask 11011111
          16 callgsubr
          hintmask 11111111
          217 callsubr
        </CharString>
        <CharString name="Ntilde.sc">
          135 callgsubr
          85 109 callgsubr
          97 43 25 28 203 28 9 42 hintmask 11011001
          -90 callsubr
          hintmask 11111011
          256 85 rmoveto
          -33 callsubr
          -28 hlineto
          -33 -5 -16 -23 -21 hhcurveto
          hintmask 11011101
          -41 -25 -8 callsubr
          5 15 23 22 hhcurveto
          hintmask 11111011
          146 callgsubr
        </CharString>
        <CharString name="O">
          -47 callgsubr
          -88 callsubr
          endchar
        </CharString>
        <CharString name="O.sc">
          -29 callgsubr
          hstem
          55 48 368 48 vstem
          -106 callsubr
          endchar
        </CharString>
        <CharString name="O.sups">
          -35 261 34 381 33 hstem
          33 41 285 40 vstem
          216 261 rmoveto
          108 75 88 138 136 -75 86 -108 -106 -77 -85 -137 -138 77 -88 106 hvcurveto
          34 vmoveto
          -85 -57 76 116 116 57 73 85 87 56 -73 -116 -116 -56 -76 -87 hvcurveto
          endchar
        </CharString>
        <CharString name="OE">
          366 0 40 290 40 249 40 hstem
          55 48 332 46 vstem
          55 332 rmoveto
          -200 105 -132 207 vhcurveto
          419 40 -305 177 callsubr
          -408 hlineto
          -208 -105 -128 -199 hvcurveto
          48 hmoveto
          172 85 116 184 vhcurveto
          63 -581 -63 hlineto
          -184 -85 121 172 hvcurveto
          endchar
        </CharString>
        <CharString name="OE.sc">
          250 0 38 215 37 184 38 hstem
          55 48 268 46 vstem
          55 255 rmoveto
          -158 88 -97 178 vhcurveto
          349 38 -253 178 callgsubr
          -340 hlineto
          -177 -88 -99 -158 hvcurveto
          316 220 rmoveto
          -437 -48 vlineto
          -153 -67 87 130 139 67 81 153 hvcurveto
          endchar
        </CharString>
        <CharString name="Oacute">
          -47 callgsubr
          38 106 -88 callsubr
          113 785 -33 callgsubr
          41 hlineto
          endchar
        </CharString>
        <CharString name="Oacute.sc">
          -29 callgsubr
          66 106 hstem
          55 48 368 48 vstem
          -106 callsubr
          113 667 -33 callgsubr
          40 hlineto
          endchar
        </CharString>
        <CharString name="Ocircumflex">
          -47 callgsubr
          110 34 -88 callsubr
          -77 679 rmoveto
          75 72 130 callgsubr
          -72 -87 callsubr
          endchar
        </CharString>
        <CharString name="Ocircumflex.sc">
          -29 callgsubr
          139 33 hstem
          55 48 368 48 vstem
          -106 callsubr
          -77 561 rmoveto
          75 73 130 callgsubr
          -73 -87 callsubr
          endchar
        </CharString>
        <CharString name="Odieresis">
          -47 callgsubr
          54 73 hstem
          55 48 108 73 84 74 107 49 vstem
          -107 callsubr
          -79 695 -23 callgsubr
        </CharString>
        <CharString name="Odieresis.sc">
          -29 callgsubr
          82 73 hstem
          55 48 69 73 84 73 69 48 vstem
          -106 callsubr
          -79 577 -60 callsubr
        </CharString>
        <CharString name="Ograve">
          -47 callgsubr
          38 106 -88 callsubr
          -3 679 15 callsubr
        </CharString>
        <CharString name="Ograve.sc">
          -29 callgsubr
          66 106 hstem
          55 48 368 48 vstem
          -106 callsubr
          -3 561 15 callsubr
        </CharString>
        <CharString name="Ohorn">
          -47 callgsubr
          hstemhm
          58 49 442 40 -36 48 hintmask 11101000
          330 30 rmoveto
          -134 -89 119 183 182 89 115 134 134 89 -115 -182 -183 -89 -119 -134 hvcurveto
          hintmask 11110000
          -79 callgsubr
          hintmask 11101000
          -1 callsubr
          hintmask 11110000
          10 callgsubr
        </CharString>
        <CharString name="Ohorn.sc">
          -29 callgsubr
          158 callsubr
          -21 40 hintmask 11110000
          287 29 rmoveto
          -111 -73 140 callsubr
          73 86 111 110 74 -86 -140 -140 -74 -88 -110 hvcurveto
          hintmask 11101000
          -76 callsubr
          hintmask 11110000
          24 callsubr
          hintmask 11101000
          55 14 36 29 52 -49 callgsubr
        </CharString>
        <CharString name="Ohungarumlaut">
          -47 callgsubr
          38 106 -88 callsubr
          -55 679 rmoveto
          79 22 callgsubr
        </CharString>
        <CharString name="Ohungarumlaut.sc">
          -29 callgsubr
          66 106 hstem
          55 48 368 48 vstem
          -106 callsubr
          -56 561 rmoveto
          80 22 callgsubr
        </CharString>
        <CharString name="Omacron">
          -47 callgsubr
          63 36 hstem
          55 48 109 228 109 49 vstem
          -107 callsubr
          -114 704 -18 callsubr
        </CharString>
        <CharString name="Omacron.sc">
          -29 callgsubr
          91 36 hstem
          55 48 70 228 70 48 vstem
          -106 callsubr
          -114 586 -18 callsubr
        </CharString>
        <CharString name="Oslash">
          185 -12 42 -10 -21 630 42 -11 -20 hstemhm
          58 49 446 48 hintmask 10101100
          501 535 rmoveto
          33 -51 19 -69 -83 vvcurveto
          -183 -89 -119 -134 -62 -53 26 45 -38 vhcurveto
          -22 31 rmoveto
          -31 51 -17 68 81 vvcurveto
          182 89 115 134 60 50 -23 -41 38 vhcurveto
          hintmask 10011100
          117 95 rmoveto
          hintmask 01101100
          -29 22 -61 -81 rlineto
          45 -46 -60 25 -69 hhcurveto
          -159 -113 -131 -208 -98 25 -82 43 -59 hvcurveto
          -70 -94 rlineto
          hintmask 10011100
          28 -22 65 87 rlineto
          -49 47 62 -27 72 hhcurveto
          158 113 135 209 100 -26 83 -45 58 hvcurveto
          endchar
        </CharString>
        <CharString name="Oslash.sc">
          107 -12 40 -8 -21 485 40 -10 -20 hstemhm
          55 47 370 47 hintmask 10101100
          435 404 rmoveto
          24 -37 13 -50 -60 vvcurveto
          -140 -74 -89 -111 -52 -43 19 34 -32 vhcurveto
          -21 28 rmoveto
          -24 38 -13 50 60 vvcurveto
          141 73 86 112 52 43 -19 -33 32 vhcurveto
          hintmask 10011100
          114 82 rmoveto
          hintmask 01101100
          -26 21 -60 -71 rlineto
          39 -40 -54 21 -61 hhcurveto
          -136 -96 -102 -165 -75 20 -62 35 -46 hvcurveto
          -64 -75 rlineto
          hintmask 10011100
          26 -21 60 70 rlineto
          -38 40 53 -22 62 hhcurveto
          135 97 105 164 75 -20 62 -35 45 hvcurveto
          endchar
        </CharString>
        <CharString name="Otilde">
          -47 callgsubr
          45 183 callgsubr
          94 28 202 29 93 49 hintmask 11011111
          -107 callsubr
          hintmask 11111111
          59 686 41 callsubr
          hintmask 11011111
          -35 callgsubr
          hintmask 11111111
          146 callgsubr
        </CharString>
        <CharString name="Otilde.sc">
          118 callsubr
          hintmask 11011111
          -106 callsubr
          hintmask 11111111
          59 568 78 callgsubr
          hintmask 11011111
          -41 -25 56 -53 -39 callgsubr
          hintmask 11111111
          145 callsubr
        </CharString>
        <CharString name="P">
          92 21 -21 283 39 298 39 hstem
          97 46 322 47 vstem
          97 hmoveto
          46 283 134 hlineto
          147 88 63 129 136 -88 48 -147 hvcurveto
          -180 hlineto
          46 -337 rmoveto
          298 123 vlineto
          134 65 -34 -111 -108 -65 -45 -134 hvcurveto
          endchar
        </CharString>
        <CharString name="P.sc">
          32 21 -21 214 36 224 38 hstem
          97 46 263 47 vstem
          97 hmoveto
          46 214 109 hlineto
          125 76 49 103 108 -76 38 -125 hvcurveto
          -155 hlineto
          46 -262 rmoveto
          224 100 vlineto
          111 52 -27 -82 -81 -49 -34 -110 hvcurveto
          endchar
        </CharString>
        <CharString name="P.sups">
          -96 450 32 187 32 hstem
          61 39 205 39 117 callsubr
          39 181 86 hlineto
          96 62 41 88 90 -61 32 -97 hvcurveto
          -125 hlineto
          39 -219 rmoveto
          187 79 vlineto
          84 42 -21 -69 -69 -42 -28 -84 hvcurveto
          endchar
        </CharString>
        <CharString name="Q">
          185 -155 42 102 38 602 42 hstem
          55 48 446 49 vstem
          103 332 rmoveto
          182 89 115 134 134 89 -115 -182 -184 -89 -121 -134 -134 -89 121 184 vhcurveto
          487 -436 rmoveto
          -5 -17 -20 -4 -30 hhcurveto
          -82 -60 36 66 -30 hvcurveto
          146 14 101 131 198 vvcurveto
          208 -113 131 -159 -158 -113 -131 -208 -197 101 -132 144 -14 vhcurveto
          -83 33 75 -61 111 hhcurveto
          33 31 6 5 17 hvcurveto
          endchar
        </CharString>
        <CharString name="Q.sc">
          107 -142 40 91 37 457 41 hstem
          55 48 368 48 vstem
          103 257 rmoveto
          140 73 86 111 110 74 -86 -140 -141 -74 -90 -110 -111 -73 90 141 vhcurveto
          407 -350 rmoveto
          -5 -15 -17 -4 -25 hhcurveto
          -68 -51 29 62 -25 hvcurveto
          123 11 87 102 155 vvcurveto
          178 callsubr
          -153 83 -102 122 -13 vhcurveto
          -76 29 66 -55 94 hhcurveto
          29 27 5 6 15 hvcurveto
          endchar
        </CharString>
        <CharString name="Q.sups">
          -35 166 34 62 32 382 33 hstem
          33 40 285 40 vstem
          73 488 rmoveto
          115 57 73 86 86 56 -73 -115 -117 -56 -77 -86 -86 -57 77 117 vhcurveto
          321 -283 rmoveto
          -2 -11 -14 -3 -20 hhcurveto
          -52 -39 21 41 -20 hvcurveto
          94 12 66 85 129 vvcurveto
          135 -76 86 -106 -106 -77 -85 -136 -130 67 -85 96 -11 vhcurveto
          -55 22 51 -41 76 hhcurveto
          24 22 4 4 11 hvcurveto
          endchar
        </CharString>
        <CharString name="R">
          93 21 139 callsubr
          312 47 vstem
          143 341 -38 callgsubr
          241 -341 rmoveto
          -182 306 rlineto
          -73 callgsubr
          endchar
        </CharString>
        <CharString name="R.sc">
          112 callsubr
          hstem
          97 46 256 45 vstem
          143 474 -13 callsubr
          313 -264 rmoveto
          -150 231 rlineto
          -72 callsubr
          endchar
        </CharString>
        <CharString name="R.sups">
          -94 462 32 175 32 hstem
          61 39 198 39 vstem
          100 669 rmoveto
          82 hlineto
          75 41 -22 -62 -62 -41 -29 -75 hvcurveto
          -82 hlineto
          247 -225 rmoveto
          -117 196 rlineto
          65 12 42 40 68 vvcurveto
          84 -59 32 -88 vhcurveto
          -129 -432 39 193 89 hlineto
          114 -193 rlineto
          endchar
        </CharString>
        <CharString name="Racute">
          215 callsubr
          106 hstem
          97 46 312 47 vstem
          397 815 35 callsubr
          -145 -368 -38 callgsubr
          241 -341 rmoveto
          -182 306 rlineto
          -73 callgsubr
          endchar
        </CharString>
        <CharString name="Racute.sc">
          112 callsubr
          78 106 hstem
          97 46 256 45 vstem
          385 696 -33 callgsubr
          40 hlineto
          -132 -116 -13 callsubr
          313 -264 rmoveto
          -150 231 rlineto
          -72 callsubr
          endchar
        </CharString>
        <CharString name="Rcaron">
          215 callsubr
          34 hstem
          97 46 312 47 vstem
          306 709 rmoveto
          96 106 rlineto
          -40 hlineto
          -75 111 callgsubr
          -120 -368 -38 callgsubr
          241 -341 rmoveto
          -182 306 rlineto
          -73 callgsubr
          endchar
        </CharString>
        <CharString name="Rcaron.sc">
          112 callsubr
          78 34 hstem
          97 46 256 45 vstem
          293 590 53 callsubr
          -108 -116 -13 callsubr
          313 -264 rmoveto
          -150 231 rlineto
          -72 callsubr
          endchar
        </CharString>
        <CharString name="S">
          54 -43 callsubr
          hstem
          81 46 306 -100 callsubr
          endchar
        </CharString>
        <CharString name="S.sc">
          114 callgsubr
          hstem
          76 46 247 47 -101 callsubr
          endchar
        </CharString>
        <CharString name="S.sups">
          -122 261 34 382 32 hstem
          50 40 192 38 vstem
          28 326 rmoveto
          -39 37 50 -26 63 hhcurveto
          87 55 52 70 62 -40 26 -51 23 hvcurveto
          -66 29 rlineto
          -32 13 -41 20 47 vvcurveto
          45 36 29 55 44 33 -18 -26 27 vhcurveto
          21 24 rlineto
          29 -29 -43 23 -53 hhcurveto
          -74 -57 -45 -63 -64 50 -27 39 -18 hvcurveto
          67 -29 rlineto
          42 -19 34 -16 -51 vvcurveto
          -49 -39 -33 -64 -49 -46 20 37 -32 vhcurveto
          endchar
        </CharString>
        <CharString name="Sacute">
          54 -43 callsubr
          38 106 hstem
          81 46 306 -100 callsubr
          309 696 144 callsubr
        </CharString>
        <CharString name="Sacute.sc">
          114 callgsubr
          66 106 hstem
          76 46 247 47 -101 callsubr
          283 599 -33 callgsubr
          40 hlineto
          endchar
        </CharString>
        <CharString name="Scaron">
          54 -43 callsubr
          38 34 hstem
          81 46 306 -100 callsubr
          273 696 -98 callgsubr
        </CharString>
        <CharString name="Scaron.sc">
          114 callgsubr
          66 34 hstem
          76 46 247 47 -101 callsubr
          247 599 -98 callgsubr
        </CharString>
        <CharString name="Scircumflex">
          54 -43 callsubr
          110 34 hstem
          81 46 306 -100 callsubr
          119 590 rmoveto
          75 72 130 callgsubr
          -72 -87 callsubr
          endchar
        </CharString>
        <CharString name="Scircumflex.sc">
          114 callgsubr
          139 33 hstem
          76 46 247 47 -101 callsubr
          93 493 rmoveto
          75 73 130 callgsubr
          -73 -87 callsubr
          endchar
        </CharString>
        <CharString name="T">
          57 21 -21 619 40 hstem
          239 46 vstem
          17 callsubr
          endchar
        </CharString>
        <CharString name="T.sc">
          -14 21 -21 474 38 hstem
          204 46 vstem
          17 callgsubr
          endchar
        </CharString>
        <CharString name="T.sups">
          -122 669 32 hstem
          154 38 vstem
          154 269 rmoveto
          38 400 136 32 -311 -32 137 hlineto
          endchar
        </CharString>
        <CharString name="Tcaron">
          57 21 -21 619 40 50 34 hstem
          239 46 vstem
          17 callsubr
          99 196 -98 callgsubr
        </CharString>
        <CharString name="Tcaron.sc">
          -14 21 -21 474 38 78 34 hstem
          204 46 vstem
          17 callgsubr
          100 222 -98 callgsubr
        </CharString>
        <CharString name="Thorn">
          96 21 -21 166 39 298 39 -39 156 hstemhm
          97 46 322 47 hintmask 11101100
          97 hmoveto
          46 166 134 hlineto
          147 88 63 129 135 -88 49 -147 hvcurveto
          -134 hlineto
          hintmask 11011100
          117 -46 vlineto
          46 -454 rmoveto
          hintmask 11101100
          298 123 vlineto
          134 65 -35 -110 -108 -65 -45 -134 hvcurveto
          endchar
        </CharString>
        <CharString name="Thorn.sc">
          37 0 161 -37 37 223 38 -38 128 hstemhm
          97 46 262 48 hintmask 10101100
          97 hmoveto
          46 hlineto
          hintmask 01101100
          124 109 vlineto
          124 77 50 102 107 -77 39 -124 hvcurveto
          -109 hlineto
          hintmask 01011100
          90 -46 vlineto
          46 -351 rmoveto
          hintmask 01101100
          223 100 vlineto
          109 53 -26 -82 -81 -52 -34 -110 hvcurveto
          endchar
        </CharString>
        <CharString name="U">
          167 -12 200 callsubr
          355 43 vstem
          -103 callsubr
          endchar
        </CharString>
        <CharString name="U.sc">
          102 -12 199 callsubr
          290 43 vstem
          -101 callgsubr
          endchar
        </CharString>
        <CharString name="U.sups">
          -45 261 34 hstem
          60 38 227 36 vstem
          60 439 rmoveto
          -136 71 -42 80 79 71 42 136 vhcurveto
          262 -36 -260 vlineto
          -112 -53 -34 -61 -60 -53 34 112 vhcurveto
          260 -38 vlineto
          endchar
        </CharString>
        <CharString name="Uacute">
          21 callgsubr
          70 106 hstem
          95 46 355 43 vstem
          -103 callsubr
          335 156 -33 callgsubr
          41 hlineto
          endchar
        </CharString>
        <CharString name="Uacute.sc">
          45 callsubr
          98 106 hstem
          95 46 290 43 vstem
          -101 callgsubr
          302 184 35 callsubr
          endchar
        </CharString>
        <CharString name="Ubreve">
          21 callgsubr
          72 32 hstem
          95 46 61 33 261 43 vstem
          -103 callsubr
          222 180 callgsubr
          -24 34 callsubr
          -46 6 34 -58 75 hhcurveto
          endchar
        </CharString>
        <CharString name="Ubreve.sc">
          45 callsubr
          100 32 hstemhm
          95 46 29 32 229 43 hintmask 11110100
          -101 callgsubr
          hintmask 11111100
          190 80 rmoveto
          75 33 59 45 7 hvcurveto
          -33 hlineto
          68 callgsubr
          -32 hlineto
          -45 6 218 callgsubr
        </CharString>
        <CharString name="Ucircumflex">
          21 callgsubr
          142 34 hstem
          95 46 355 43 vstem
          -103 callsubr
          145 50 rmoveto
          75 72 130 callgsubr
          -72 -87 callsubr
          endchar
        </CharString>
        <CharString name="Ucircumflex.sc">
          45 callsubr
          171 33 hstem
          95 46 290 43 vstem
          -101 callgsubr
          113 78 rmoveto
          75 73 130 callgsubr
          -73 -87 callsubr
          endchar
        </CharString>
        <CharString name="Udieresis">
          21 callgsubr
          86 73 hstem
          95 46 61 73 84 74 63 43 vstem
          -103 callsubr
          143 66 3 callsubr
          26 callgsubr
          -21 194 callsubr
        </CharString>
        <CharString name="Udieresis.sc">
          45 callsubr
          114 73 hstemhm
          95 46 28 73 85 73 31 43 hintmask 11110010
          -101 callgsubr
          hintmask 11111110
          111 94 rmoveto
          21 15 14 22 23 -15 -67 callgsubr
          157 hmoveto
          170 callgsubr
          -20 -16 -14 -23 -22 16 -14 20 hvcurveto
          endchar
        </CharString>
        <CharString name="Ugrave">
          21 callgsubr
          70 106 hstem
          95 46 355 43 vstem
          -103 callsubr
          219 50 15 callsubr
        </CharString>
        <CharString name="Ugrave.sc">
          45 callsubr
          98 106 hstem
          95 46 290 43 vstem
          -101 callgsubr
          186 78 217 callgsubr
        </CharString>
        <CharString name="Uhorn">
          178 -12 200 callsubr
          355 188 callgsubr
          586 767 -92 callsubr
        </CharString>
        <CharString name="Uhorn.sc">
          113 -12 199 callsubr
          290 188 callgsubr
          521 620 -84 callsubr
        </CharString>
        <CharString name="Uhungarumlaut">
          21 callgsubr
          70 106 hstem
          95 46 355 43 vstem
          -103 callsubr
          167 50 rmoveto
          79 22 callgsubr
        </CharString>
        <CharString name="Uhungarumlaut.sc">
          45 callsubr
          98 106 hstem
          95 46 290 43 vstem
          -101 callgsubr
          134 78 rmoveto
          79 106 rlineto
          -48 hlineto
          -68 -106 rlineto
          145 hmoveto
          37 hlineto
          79 106 rlineto
          -48 hlineto
          endchar
        </CharString>
        <CharString name="Umacron">
          21 callgsubr
          95 36 hstem
          95 46 62 228 65 43 vstem
          -103 callsubr
          108 75 -18 callsubr
        </CharString>
        <CharString name="Umacron.sc">
          45 callsubr
          123 36 hstemhm
          95 46 30 227 33 43 hintmask 11110100
          -101 callgsubr
          hintmask 11111100
          76 103 -35 callsubr
          endchar
        </CharString>
        <CharString name="Uogonek">
          167 -205 37 156 200 callsubr
          120 40 195 43 vstem
          95 253 rmoveto
          -201 101 -64 129 vhcurveto
          -30 -30 -34 -29 -52 vvcurveto
          -55 38 -27 47 21 29 11 13 15 vhcurveto
          -16 27 rlineto
          -10 -14 -12 153 callsubr
          35 31 46 53 27 hvcurveto
          81 40 73 49 172 vvcurveto
          406 -43 -401 vlineto
          -175 -85 -53 -95 -93 -82 53 175 vhcurveto
          401 -46 vlineto
          endchar
        </CharString>
        <CharString name="Uogonek.sc">
          102 -205 37 156 199 callsubr
          91 39 160 43 vstem
          474 512 rmoveto
          -43 -309 hlineto
          -135 -68 -39 -78 -78 -66 39 135 vhcurveto
          309 -46 -314 vlineto
          -161 88 -49 113 vhcurveto
          -31 -30 -33 -29 -52 vvcurveto
          -55 37 -27 47 65 callgsubr
          -14 -12 153 callsubr
          35 31 46 53 27 hvcurveto
          61 32 58 39 135 vvcurveto
          endchar
        </CharString>
        <CharString name="Uring">
          21 callgsubr
          61 26 112 26 hstem
          95 46 94 30 103 31 97 43 vstem
          -103 callsubr
          222 41 rmoveto
          46 callgsubr
        </CharString>
        <CharString name="Uring.sc">
          45 callsubr
          89 26 112 26 hstem
          95 46 61 30 103 32 64 43 vstem
          -101 callgsubr
          190 69 rmoveto
          45 37 33 49 49 -37 33 -45 -47 -36 -33 -49 -49 36 -33 47 hvcurveto
          26 vmoveto
          -29 -24 19 37 35 24 21 29 27 23 -21 -35 -37 -23 -19 -27 hvcurveto
          endchar
        </CharString>
        <CharString name="Utilde">
          21 callgsubr
          77 109 callgsubr
          95 46 46 29 202 29 49 43 hintmask 11011111
          -103 callsubr
          hintmask 11111111
          281 57 41 callsubr
          hintmask 11011111
          -41 -25 56 -52 hhcurveto
          -45 -24 -47 -45 -3 hvcurveto
          29 116 callsubr
          22 hhcurveto
          hintmask 11111111
          146 callgsubr
        </CharString>
        <CharString name="Utilde.sc">
          45 callsubr
          105 109 callgsubr
          95 46 14 28 203 28 17 43 hintmask 11011001
          -101 callgsubr
          hintmask 11111011
          248 85 rmoveto
          -33 callsubr
          -28 hlineto
          -33 -5 -15 -23 -22 hhcurveto
          hintmask 11011101
          16 callgsubr
          hintmask 11111011
          217 callsubr
        </CharString>
        <CharString name="V">
          24 0 53 606 -20 hstem
          4 483 vstem
          222 hmoveto
          49 hlineto
          216 659 rlineto
          -47 hlineto
          -122 -385 -25 -80 -17 -61 -27 -80 rlinecurve
          -4 hlineto
          -27 80 -18 61 -25 80 -122 385 rcurveline
          -49 hlineto
          endchar
        </CharString>
        <CharString name="V.sc">
          -46 0 50 462 -20 hstem
          4 412 vstem
          187 hmoveto
          49 hlineto
          180 512 rlineto
          -46 hlineto
          -98 -290 -21 -63 -15 -47 -21 -62 rlinecurve
          -4 hlineto
          -21 62 -17 47 -21 63 -99 290 rcurveline
          -49 hlineto
          endchar
        </CharString>
        <CharString name="V.sups">
          -140 269 43 hstem
          0 328 vstem
          144 269 rmoveto
          42 hlineto
          142 432 rlineto
          -40 hlineto
          -77 -245 -16 -52 -10 -41 -17 -51 rlinecurve
          -3 hlineto
          -18 51 -11 41 -17 52 -78 245 rcurveline
          -41 hlineto
          endchar
        </CharString>
        <CharString name="W">
          129 callsubr
          hstem
          28 712 -97 callsubr
          endchar
        </CharString>
        <CharString name="W.sc">
          128 callgsubr
          hstem
          28 607 -95 callsubr
          endchar
        </CharString>
        <CharString name="W.sups">
          45 269 44 338 50 hstem
          16 480 vstem
          114 269 rmoveto
          43 hlineto
          74 285 9 33 7 30 8 34 rlinecurve
          3 hlineto
          7 -34 6 -30 9 -33 76 -285 rcurveline
          43 hlineto
          97 432 rlineto
          -37 hlineto
          -53 -247 -10 -48 -8 -46 -9 -47 rlinecurve
          -3 hlineto
          -12 47 -10 47 -12 47 -67 247 rcurveline
          -37 hlineto
          -66 -247 -12 -48 -10 -46 -11 -47 rlinecurve
          -3 hlineto
          -8 47 -9 46 -10 48 -53 247 rcurveline
          -40 hlineto
          endchar
        </CharString>
        <CharString name="Wacute">
          129 callsubr
          50 106 hstem
          28 712 -97 callsubr
          470 156 -33 callgsubr
          40 hlineto
          endchar
        </CharString>
        <CharString name="Wacute.sc">
          128 callgsubr
          78 106 hstem
          28 607 -95 callsubr
          417 184 -33 callgsubr
          40 hlineto
          endchar
        </CharString>
        <CharString name="Wcircumflex">
          129 callsubr
          122 34 hstem
          28 712 -97 callsubr
          280 50 rmoveto
          75 72 130 callgsubr
          -72 -87 callsubr
          endchar
        </CharString>
        <CharString name="Wcircumflex.sc">
          128 callgsubr
          151 33 hstem
          28 607 -95 callsubr
          227 78 rmoveto
          75 73 130 callgsubr
          -73 -87 callsubr
          endchar
        </CharString>
        <CharString name="Wdieresis">
          129 callsubr
          66 73 hstem
          270 73 84 73 -97 callsubr
          278 66 -60 callsubr
        </CharString>
        <CharString name="Wdieresis.sc">
          128 callgsubr
          94 73 hstem
          216 74 84 73 -95 callsubr
          225 94 rmoveto
          -53 callgsubr
          158 hmoveto
          20 26 callgsubr
          -20 194 callsubr
        </CharString>
        <CharString name="Wgrave">
          129 callsubr
          50 106 hstem
          28 712 -97 callsubr
          354 50 15 callsubr
        </CharString>
        <CharString name="Wgrave.sc">
          128 callgsubr
          78 106 hstem
          28 607 -95 callsubr
          300 78 rmoveto
          41 hlineto
          62 callgsubr
          endchar
        </CharString>
        <CharString name="X">
          15 62 callsubr
          hstem
          17 448 vstem
          17 hmoveto
          47 hlineto
          115 202 18 33 17 32 21 40 rlinecurve
          4 hlineto
          24 -40 19 -32 18 -33 115 -202 rcurveline
          50 hlineto
          -198 339 184 320 rlineto
          -47 hlineto
          -108 -194 -18 -30 -12 -24 -19 -36 rlinecurve
          -4 hlineto
          -22 36 -14 24 -18 30 -108 194 rcurveline
          -50 hlineto
          184 -318 rlineto
          endchar
        </CharString>
        <CharString name="X.sc">
          -47 61 callsubr
          hstem
          17 386 vstem
          17 hmoveto
          48 hlineto
          93 151 15 25 15 25 18 31 rlinecurve
          4 hlineto
          19 -31 15 -25 15 -25 94 -151 rcurveline
          50 hlineto
          -166 262 154 250 rlineto
          -48 hlineto
          -87 -144 -13 -23 -13 -20 -15 -29 rlinecurve
          -4 hlineto
          -18 29 -11 20 -15 23 -89 144 rcurveline
          -49 hlineto
          154 -247 rlineto
          endchar
        </CharString>
        <CharString name="X.sups">
          -144 269 432 hstem
          9 305 vstem
          9 269 rmoveto
          40 hlineto
          72 128 12 21 12 21 13 26 rlinecurve
          3 hlineto
          16 -26 12 -21 12 -21 72 -128 rcurveline
          41 hlineto
          -131 222 122 210 rlineto
          -40 hlineto
          -68 -122 -10 -20 -9 -16 -13 -23 rlinecurve
          -3 hlineto
          -14 23 -9 16 -12 20 -67 122 rcurveline
          -42 hlineto
          121 -208 rlineto
          endchar
        </CharString>
        <CharString name="Y">
          -20 62 callsubr
          hstem
          200 46 vstem
          -93 callgsubr
          endchar
        </CharString>
        <CharString name="Y.sc">
          -83 61 callsubr
          hstem
          169 46 vstem
          -94 callsubr
          endchar
        </CharString>
        <CharString name="Y.sups">
          -168 269 432 hstem
          130 39 vstem
          130 269 rmoveto
          39 173 hlineto
          132 259 rlineto
          -40 hlineto
          -63 -131 -14 -32 -16 -29 -16 -32 rlinecurve
          -3 hlineto
          -16 32 -15 29 -15 32 -64 131 rcurveline
          -41 hlineto
          132 -259 rlineto
          endchar
        </CharString>
        <CharString name="Yacute">
          -20 62 callsubr
          70 106 hstem
          200 46 vstem
          -93 callgsubr
          136 548 35 callsubr
          endchar
        </CharString>
        <CharString name="Yacute.sc">
          -83 61 callsubr
          98 106 hstem
          169 46 vstem
          -94 callsubr
          138 491 -33 callgsubr
          41 hlineto
          endchar
        </CharString>
        <CharString name="Ycircumflex">
          -20 62 callsubr
          142 34 hstem
          200 46 vstem
          -93 callgsubr
          -54 442 rmoveto
          75 72 130 callgsubr
          -72 -87 callsubr
          endchar
        </CharString>
        <CharString name="Ycircumflex.sc">
          -83 61 callsubr
          171 33 hstem
          169 46 vstem
          -94 callsubr
          -52 385 rmoveto
          75 73 130 callgsubr
          -73 -87 callsubr
          endchar
        </CharString>
        <CharString name="Ydieresis">
          -20 62 callsubr
          86 73 hstemhm
          108 73 19 46 20 73 hintmask 11101000
          -93 callgsubr
          hintmask 11111100
          -55 458 rmoveto
          20 26 callgsubr
          -20 -21 -16 -14 -23 -22 16 -14 21 hvcurveto
          157 hmoveto
          4 callgsubr
          endchar
        </CharString>
        <CharString name="Ydieresis.sc">
          -83 61 callsubr
          114 73 hstemhm
          79 73 17 46 21 74 hintmask 11101000
          -94 callsubr
          hintmask 11111100
          -54 401 3 callsubr
          26 callgsubr
          -21 194 callsubr
        </CharString>
        <CharString name="Ygrave">
          -20 62 callsubr
          70 106 hstem
          200 46 vstem
          -93 callgsubr
          20 442 217 callgsubr
        </CharString>
        <CharString name="Ygrave.sc">
          -83 61 callsubr
          98 106 hstem
          169 46 vstem
          -94 callsubr
          22 385 15 callsubr
        </CharString>
        <CharString name="Z">
          71 0 40 579 40 hstem
          50 440 vstem
          -42 callsubr
          endchar
        </CharString>
        <CharString name="Z.sc">
          184 callsubr
          hstem
          50 374 -45 callgsubr
          endchar
        </CharString>
        <CharString name="Z.sups">
          -113 269 32 368 32 hstem
          30 296 vstem
          30 269 rmoveto
          296 32 -249 hlineto
          246 377 rlineto
          23 -272 -32 225 vlineto
          -246 -377 rlineto
          endchar
        </CharString>
        <CharString name="Zacute">
          71 0 40 579 40 50 106 hstem
          50 440 vstem
          -42 callsubr
          342 788 35 callsubr
          endchar
        </CharString>
        <CharString name="Zacute.sc">
          184 callsubr
          78 106 hstem
          50 374 -45 callgsubr
          310 670 -33 callgsubr
          41 hlineto
          endchar
        </CharString>
        <CharString name="Zcaron">
          71 0 40 579 40 -40 196 -106 34 hstemhm
          50 440 hintmask 11001000
          -42 callsubr
          hintmask 10101000
          306 788 rmoveto
          hintmask 11011000
          -74 -72 rlineto
          -4 hlineto
          hintmask 10101000
          -75 72 rlineto
          -41 hlineto
          hintmask 11011000
          96 -106 rlineto
          43 hlineto
          hintmask 10101000
          96 106 rlineto
          endchar
        </CharString>
        <CharString name="Zcaron.sc">
          184 callsubr
          78 34 hstem
          50 374 -45 callgsubr
          274 670 -98 callgsubr
        </CharString>
        <CharString name="Zdotaccent">
          71 0 40 579 40 62 80 hstem
          239 81 vstem
          -42 callsubr
          230 694 120 callgsubr
        </CharString>
        <CharString name="Zdotaccent.sc">
          184 callsubr
          90 81 hstem
          207 80 -45 callgsubr
          197 576 -7 callsubr
        </CharString>
        <CharString name="a">
          -55 callsubr
          96 callgsubr
          hintmask 10111000
          -89 callsubr
          hintmask 01111000
          -104 callsubr
          hintmask 10111000
          -103 callgsubr
          endchar
        </CharString>
        <CharString name="a.a">
          -72 callgsubr
          70 callsubr
          hintmask 10101100
          -106 callgsubr
          hintmask 01011100
          -66 callsubr
          hintmask 10101100
          -98 callsubr
          endchar
        </CharString>
        <CharString name="a.supa">
          -32 callgsubr
        </CharString>
        <CharString name="a.sups">
          -46 callsubr
        </CharString>
        <CharString name="aacute">
          -55 callsubr
          96 callgsubr
          hintmask 10111000
          -89 callsubr
          hintmask 01111000
          -104 callsubr
          hintmask 10111000
          -103 callgsubr
          240 586 rmoveto
          -53 hlineto
          -91 172 callsubr
          endchar
        </CharString>
        <CharString name="aacute.a">
          -72 callgsubr
          70 callsubr
          hintmask 10101100
          -106 callgsubr
          hintmask 01011100
          -66 callsubr
          hintmask 10101100
          -98 callsubr
          309 469 59 callsubr
          endchar
        </CharString>
        <CharString name="abreve">
          -55 callsubr
          84 32 hstemhm
          65 46 33 33 171 33 -6 44 hintmask 10111001
          -89 callsubr
          hintmask 01111001
          -104 callsubr
          hintmask 10111001
          -103 callgsubr
          hintmask 10111110
          152 454 rmoveto
          81 32 68 51 5 hvcurveto
          -33 hlineto
          -43 -5 58 callgsubr
          endchar
        </CharString>
        <CharString name="abreve.a">
          -72 callgsubr
          116 32 hstemhm
          52 47 55 206 callgsubr
          16 44 hintmask 1010110010000000
          -106 callgsubr
          hintmask 0101110010000000
          -66 callsubr
          hintmask 1010110010000000
          -98 callsubr
          hintmask 1010111110000000
          221 337 8 callgsubr
          endchar
        </CharString>
        <CharString name="acircumflex">
          -55 callsubr
          179 37 96 callgsubr
          hintmask 10101100
          -89 callsubr
          hintmask 01101100
          -104 callsubr
          hintmask 10101100
          -103 callgsubr
          hintmask 10111100
          106 callsubr
          endchar
        </CharString>
        <CharString name="acircumflex.a">
          -72 callgsubr
          211 37 70 callsubr
          hintmask 10100110
          -106 callgsubr
          hintmask 01010110
          -66 callsubr
          hintmask 10100110
          -98 callsubr
          hintmask 10101110
          107 333 -49 callsubr
          endchar
        </CharString>
        <CharString name="acute">
          68 174 callgsubr
          212 144 vstem
          166 callsubr
          endchar
        </CharString>
        <CharString name="adieresis">
          -55 callsubr
          106 73 hstemhm
          65 46 36 73 85 73 -3 44 hintmask 10101001
          -89 callsubr
          hintmask 01101001
          -104 callsubr
          hintmask 10101001
          -103 callgsubr
          hintmask 10111110
          73 476 rmoveto
          136 callsubr
          157 hmoveto
          137 callgsubr
          endchar
        </CharString>
        <CharString name="adieresis.a">
          -72 callgsubr
          138 73 hstemhm
          52 47 58 74 84 73 20 44 hintmask 1010010010000000
          -106 callgsubr
          hintmask 0101010010000000
          -66 callsubr
          hintmask 1010010010000000
          -98 callsubr
          hintmask 1010111110000000
          142 359 rmoveto
          21 16 16 21 20 -16 190 callgsubr
          158 hmoveto
          20 -11 callsubr
          -20 30 callsubr
          endchar
        </CharString>
        <CharString name="ae">
          317 -12 39 207 34 186 38 hstem
          65 46 259 42 293 41 vstem
          111 122 rmoveto
          76 71 46 187 23 vhcurveto
          1 -27 rlineto
          -45 7 -47 14 -29 vhcurveto
          -59 -55 -72 -34 -52 hhcurveto
          -55 -46 27 69 hvcurveto
          -2 275 rmoveto
          24 32 56 32 60 hhcurveto
          94 20 -79 -73 -1 hvcurveto
          -207 -24 -98 -51 -107 vvcurveto
          -90 64 -41 76 60 79 38 61 63 vhcurveto
          -50 35 51 -49 86 hhcurveto
          70 40 24 23 38 hvcurveto
          -19 35 rlineto
          -26 -36 -37 -17 -52 hhcurveto
          -97 -74 86 121 hvcurveto
          332 hlineto
          2 12 0 12 12 vvcurveto
          141 -66 81 -112 -71 -61 -47 -73 -35 vhcurveto
          73 -16 -46 47 -78 hhcurveto
          -72 -66 -38 -24 -34 hvcurveto
          323 -162 rmoveto
          110 10 66 76 79 hhcurveto
          86 52 -63 -123 hvcurveto
          endchar
        </CharString>
        <CharString name="agrave">
          -55 callsubr
          96 callgsubr
          hintmask 10111000
          -89 callsubr
          hintmask 01111000
          -104 callsubr
          hintmask 10111000
          -103 callgsubr
          169 450 rmoveto
          38 hlineto
          -91 136 rlineto
          -53 hlineto
          endchar
        </CharString>
        <CharString name="agrave.a">
          -72 callgsubr
          70 callsubr
          hintmask 10101100
          -106 callgsubr
          hintmask 01011100
          -66 callsubr
          hintmask 10101100
          -98 callsubr
          239 333 194 callgsubr
        </CharString>
        <CharString name="amacron">
          -55 callsubr
          114 36 hstemhm
          65 46 38 227 -1 44 hintmask 10111010
          -89 callsubr
          hintmask 01111010
          -104 callsubr
          hintmask 10111010
          -103 callgsubr
          hintmask 10111100
          38 484 -35 callsubr
          endchar
        </CharString>
        <CharString name="amacron.a">
          -72 callgsubr
          146 36 hstemhm
          52 47 60 227 22 44 hintmask 10101101
          -106 callgsubr
          hintmask 01011101
          -66 callsubr
          hintmask 10101101
          -98 callsubr
          hintmask 10101111
          107 367 -35 callsubr
          endchar
        </CharString>
        <CharString name="ampersand">
          108 -12 38 609 36 hstem
          36 45 46 41 165 40 vstem
          230 26 rmoveto
          -81 -68 57 87 65 49 48 59 46 hvcurveto
          47 -85 70 -83 70 -64 rrcurveto
          -42 -41 -51 -29 -54 hhcurveto
          -62 500 rmoveto
          60 35 49 58 53 19 -43 -43 -68 -61 -47 -67 -48 vhcurveto
          -23 48 -14 48 44 vvcurveto
          394 -499 rmoveto
          -38 14 -44 25 -46 37 53 67 38 85 26 90 rrcurveto
          -43 hlineto
          -23 -84 -34 -74 -47 -59 -68 60 -69 82 -46 84 rrcurveto
          75 56 77 56 85 vvcurveto
          69 -39 51 -71 -80 -56 -62 -85 -51 17 -56 27 -56 vhcurveto
          -69 -51 -66 -56 -87 vvcurveto
          -109 85 -70 105 74 58 34 49 48 vhcurveto
          52 -41 47 -27 42 -15 rrcurveto
          endchar
        </CharString>
        <CharString name="ampersand.sc">
          31 -12 37 463 36 hstem
          36 44 32 38 135 37 vstem
          80 133 rmoveto
          48 39 36 46 34 vhcurveto
          40 -64 57 -63 59 -48 rrcurveto
          -30 -35 -41 -21 -43 hhcurveto
          -67 -55 43 65 hvcurveto
          70 272 rmoveto
          45 30 38 47 44 14 -33 -32 -51 -50 -35 -55 -36 vhcurveto
          -19 36 -11 36 32 vvcurveto
          335 -379 rmoveto
          -31 10 -38 19 -38 27 45 52 31 63 22 72 rrcurveto
          -41 hlineto
          -19 -63 -28 -57 -39 -45 -57 44 -57 62 -39 62 rrcurveto
          62 43 64 43 66 vvcurveto
          55 -31 45 -62 -69 -48 -54 -66 -38 14 -43 22 -43 vhcurveto
          -58 -39 -54 -43 -68 vvcurveto
          -84 71 -58 91 62 50 26 38 40 vhcurveto
          44 -32 42 -21 36 -11 rrcurveto
          endchar
        </CharString>
        <CharString name="aogonek">
          32 202 callsubr
          38 -17 -21 33 -50 callsubr
          hstemhm
          65 46 184 38 42 44 hintmask 11001111
          111 122 rmoveto
          76 67 46 197 23 vhcurveto
          -163 vlineto
          -51 -59 -49 -27 -55 hhcurveto
          -55 -46 27 69 hvcurveto
          -46 -3 rmoveto
          -90 64 -41 76 63 58 35 39 49 vhcurveto
          2 hlineto
          hintmask 10101111
          5 -55 rlineto
          -47 -29 -40 -49 -51 vvcurveto
          -54 35 -27 46 54 callgsubr
          hvcurveto
          hintmask 10011111
          43 36 48 50 25 vhcurveto
          307 vlineto
          103 -38 82 -114 -78 -66 -38 -24 -34 vhcurveto
          20 -33 rlineto
          24 32 56 32 65 hhcurveto
          94 21 -79 -73 -2 hvcurveto
          hintmask 11001111
          -213 -24 -97 -51 -107 vvcurveto
          endchar
        </CharString>
        <CharString name="aogonek.a">
          77 202 callsubr
          39 -18 -21 33 -50 callsubr
          -12 -20 hstemhm
          52 47 228 39 42 44 hintmask 1100101110000000
          -106 callgsubr
          hintmask 1010101110000000
          5 -55 rlineto
          -53 -38 -35 -40 -51 vvcurveto
          -54 36 -27 46 21 28 10 13 16 vhcurveto
          -16 26 rlineto
          -10 -14 -12 -4 -17 hhcurveto
          -26 -23 18 34 hvcurveto
          hintmask 1001011110000000
          43 30 39 56 34 vhcurveto
          480 -39 vlineto
          hintmask 1100101110000000
          -98 callsubr
          endchar
        </CharString>
        <CharString name="approxequal">
          12 164 38 52 38 76 38 52 38 hstem
          40 398 vstem
          69 395 -6 callsubr
          29 -222 -6 callsubr
          endchar
        </CharString>
        <CharString name="aring">
          -55 callsubr
          47 26 121 26 hstemhm
          65 46 69 30 105 30 30 44 hintmask 1011111010000000
          -89 callsubr
          hintmask 0111111010000000
          -104 callsubr
          hintmask 1011111010000000
          -103 callgsubr
          hintmask 1011111110000000
          152 417 rmoveto
          46 36 35 51 52 -36 35 -46 -47 -36 -35 -52 -51 36 -35 47 hvcurveto
          26 vmoveto
          -30 -23 24 36 37 23 24 30 89 callgsubr
        </CharString>
        <CharString name="aring.a">
          -72 callgsubr
          79 26 121 26 hstemhm
          52 47 91 30 105 30 53 44 hintmask 1010111111000000
          -106 callgsubr
          hintmask 0101111111000000
          -66 callsubr
          hintmask 1010111111000000
          -98 callsubr
          221 300 rmoveto
          47 35 35 51 52 -35 35 -47 -47 -36 -35 -52 -51 36 -35 47 hvcurveto
          26 vmoveto
          -29 -24 24 36 37 24 24 29 89 callgsubr
        </CharString>
        <CharString name="arrowdown">
          216 callsubr
          312 -24 rmoveto
          264 269 -27 26 -220 -231 rlineto
          486 -39 -486 vlineto
          -219 231 -28 -26 265 -269 rlineto
          endchar
        </CharString>
        <CharString name="arrowup">
          216 callsubr
          308 526 rmoveto
          -265 -269 28 -26 219 231 rlineto
          -486 39 486 vlineto
          220 -231 27 26 -264 269 rlineto
          endchar
        </CharString>
        <CharString name="asciicircum">
          12 626 44 hstem
          66 347 vstem
          66 290 rmoveto
          43 hlineto
          77 203 51 133 -20 callsubr
          52 -133 77 -203 rlineto
          43 hlineto
          -151 380 rlineto
          -46 hlineto
          endchar
        </CharString>
        <CharString name="asciitilde">
          12 266 38 52 38 hstem
          40 398 vstem
          69 293 -6 callsubr
          endchar
        </CharString>
        <CharString name="asterisk">
          -72 462 250 hstem
          177.5 39 vstem
          132 462 rmoveto
          66 83 64 -83 27 20 -54 88 90 36 -10 30 -95 -25 -7 101 rlineto
          -32 hlineto
          -7 -102 -95 26 -9 -30 90 -36 -55 -88 rlineto
          endchar
        </CharString>
        <CharString name="at">
          347 -146 36 166 35 -29 36 289 36 175 35 hstemhm
          52 38 154 40 198 31 212 38 hintmask 1101111110000000
          52 202 rmoveto
          -220 143 -128 193 68 62 18 36 57 vhcurveto
          -16 30 rlineto
          -29 -48 -54 -19 -66 hhcurveto
          -179 -122 120 195 238 173 155 183 173 106 -113 -172 -141 -79 -81 -64 -61 -22 44 91 23 hvcurveto
          36 189 rlineto
          -34 hlineto
          -9 -40 rlineto
          -2 hlineto
          32 -20 -27 16 -36 hhcurveto
          -118 -68 -128 -97 hvcurveto
          hintmask 1011111110000000
          -90 52 -46 62 46 41 31 39 35 vhcurveto
          2 hlineto
          hintmask 1101111110000000
          -52 5 39 -24 53 hhcurveto
          83 101 90 170 190 -121 127 -193 -211 -186 -170 -261 hvcurveto
          hintmask 1011111110000000
          232 -1 rmoveto
          84 55 102 90 30 20 -12 -37 24 vhcurveto
          -31 -173 rlineto
          -46 -40 -36 -21 -32 hhcurveto
          -45 -35 27 76 hvcurveto
          endchar
        </CharString>
        <CharString name="at.case">
          287 -18 35 137 35 -29 36 270 35 145 35 hstemhm
          52 38 134 39 188 33 181 38 hintmask 1101111110000000
          52 289 rmoveto
          -199 132 -108 175 55 52 13 30 46 vhcurveto
          -17 28 rlineto
          -25 -37 -47 -11 -49 hhcurveto
          -159 -113 92 182 215 156 140 170 155 94 -95 -157 -133 -68 -72 -57 -54 -14 39 96 21 hvcurveto
          37 169 rlineto
          -36 hlineto
          -10 -40 rlineto
          -2 hlineto
          32 -18 -28 16 -32 hhcurveto
          -118 -62 -122 -93 hvcurveto
          hintmask 1011111110000000
          -78 49 -48 56 49 38 32 38 33 vhcurveto
          2 hlineto
          hintmask 1101111110000000
          -48 3 32 -28 49 hhcurveto
          82 86 86 156 175 -114 110 -166 -198 -173 -157 -235 hvcurveto
          hintmask 1011111110000000
          284 -93 rmoveto
          -39 -34 30 66 78 53 96 85 31 17 -12 -37 24 hvcurveto
          -31 -154 rlineto
          -46 -40 -35 -21 -31 hhcurveto
          endchar
        </CharString>
        <CharString name="atilde">
          -55 callsubr
          89 164 callgsubr
          65 46 28 30 187 30 -11 44 hintmask 1010110010000000
          -89 callsubr
          hintmask 0110110010000000
          -104 callsubr
          hintmask 1010110010000000
          -103 callgsubr
          hintmask 1010111010000000
          28 459 128 callsubr
          22 hhcurveto
          hintmask 1011110100000000
          36 26 -55 49 hhcurveto
          47 34 callgsubr
          -21 hhcurveto
          hintmask 1010111010000000
          -35 -28 55 -48 43 callsubr
        </CharString>
        <CharString name="atilde.a">
          -72 callgsubr
          121 164 callgsubr
          52 47 50 30 187 31 11 44 hintmask 1010011001000000
          -106 callgsubr
          hintmask 0101011001000000
          -66 callsubr
          hintmask 1010011001000000
          -98 callsubr
          hintmask 1010011101000000
          97 342 rmoveto
          171 callsubr
          hintmask 1010111011000000
          36 26 -55 49 hhcurveto
          47 19 47 42 3 hvcurveto
          -31 hlineto
          -34 -4 -12 -21 -21 hhcurveto
          hintmask 1010011101000000
          -35 -28 55 -48 43 callsubr
        </CharString>
        <CharString name="b">
          77 -12 -50 callgsubr
          227 -20 hstemhm
          92 44 309 47 hintmask 01111100
          92 hmoveto
          37 hlineto
          hintmask 10111100
          0 callgsubr
          endchar
        </CharString>
        <CharString name="b.sups">
          -100 82 callsubr
          58 37 196 39 vstem
          58 269 rmoveto
          29 hlineto
          4 31 -20 callsubr
          -25 30 35 168 callsubr
          -33 -23 -28 -33 hvcurveto
          2 63 rlineto
          135 -37 vlineto
          37 -409 86 callsubr
        </CharString>
        <CharString name="backslash">
          -110 -160 870 hstem
          5 344 vstem
          311 -160 rmoveto
          38 hlineto
          -306 870 rlineto
          -38 hlineto
          endchar
        </CharString>
        <CharString name="bar">
          -241 200 callgsubr
          vstem
          95 -250 rmoveto
          36 1000 -36 hlineto
          endchar
        </CharString>
        <CharString name="braceleft">
          174 callsubr
          385 32 385 29 hstemhm
          35 70 8 43 hintmask 11101000
          227 -123 rmoveto
          -61 -16 33 70 hvcurveto
          65 6 55 72 vvcurveto
          57 -11 35 -40 12 vhcurveto
          4 vlineto
          40 12 11 33 59 72 -6 55 65 vvcurveto
          70 16 33 61 vhcurveto
          31 29 -34 hlineto
          -74 -37 -27 -101 hvcurveto
          -74 8 -62 -71 vvcurveto
          hintmask 11111000
          -39 -16 -40 -70 vhcurveto
          -32 vlineto
          hintmask 11101000
          70 16 -40 -41 hvcurveto
          -69 -8 -62 -74 vvcurveto
          -101 37 -27 74 vhcurveto
          34 29 hlineto
          endchar
        </CharString>
        <CharString name="braceright">
          174 callsubr
          385 32 385 29 hstemhm
          123 43 8 70 hintmask 11110000
          21 -123 rmoveto
          -29 34 vlineto
          74 37 27 101 hvcurveto
          74 -8 62 69 vvcurveto
          hintmask 11111000
          41 16 40 70 vhcurveto
          32 vlineto
          hintmask 11110000
          -70 -16 40 39 hvcurveto
          71 8 62 74 vvcurveto
          101 -37 27 -74 vhcurveto
          -34 -29 31 hlineto
          61 16 -33 -70 hvcurveto
          -65 -6 -55 -72 vvcurveto
          -59 12 -33 39 -12 vhcurveto
          -4 vlineto
          -39 -12 -12 -35 -57 -72 6 -55 -65 vvcurveto
          -70 -16 -33 -61 vhcurveto
          endchar
        </CharString>
        <CharString name="bracketleft">
          174 callsubr
          802 29 202 callgsubr
          -152 rmoveto
          160 29 -125 802 125 29 -160 hlineto
          endchar
        </CharString>
        <CharString name="bracketright">
          174 callsubr
          802 29 hstem
          146 35 vstem
          21 -123 rmoveto
          -29 160 860 -160 -29 125 -802 vlineto
          endchar
        </CharString>
        <CharString name="breve">
          68 576 32 hstem
          149 32 172 33 vstem
          267 576 63 callsubr
        </CharString>
        <CharString name="brokenbar">
          -241 200 callgsubr
          vstem
          95 279 rmoveto
          36 471 -36 hlineto
          -530 vmoveto
          -470 36 470 vlineto
          endchar
        </CharString>
        <CharString name="bullet">
          -186 154 220 hstem
          40 201 vstem
          140 154 rmoveto
          52 49 42 68 67 -49 43 -52 -51 -49 -43 -67 -68 49 -42 51 hvcurveto
          endchar
        </CharString>
        <CharString name="c">
          -18 203 callsubr
          hstem
          52 46 -82 callsubr
          endchar
        </CharString>
        <CharString name="c.sups">
          -165 82 callsubr
          33 39 vstem
          183 261 rmoveto
          48 29 18 20 24 hvcurveto
          -17 26 rlineto
          -18 -21 -25 -13 -37 hhcurveto
          -66 -46 55 79 78 48 56 63 35 18 -10 -19 23 hvcurveto
          19 26 rlineto
          18 -21 -29 18 -45 hhcurveto
          -79 -71 -61 -106 -107 63 -60 87 hvcurveto
          endchar
        </CharString>
        <CharString name="cacute">
          -18 203 callsubr
          hstem
          52 46 -82 callsubr
          308 469 59 callsubr
          endchar
        </CharString>
        <CharString name="caron">
          68 572 37 hstem
          154 227 vstem
          248 572 -18 callgsubr
        </CharString>
        <CharString name="ccaron">
          -18 203 callsubr
          80 37 hstem
          52 46 -82 callsubr
          200 333 -56 callsubr
        </CharString>
        <CharString name="ccedilla">
          -18 -11 38 426 39 hstem
          52 46 186 39 vstem
          285 -11 rmoveto
          54 4 46 25 38 34 -23 30 rcurveline
          -30 -33 -44 -25 -51 hhcurveto
          -105 -69 175 callgsubr
          76 87 98 47 36 -22 -29 31 hvcurveto
          26 31 rlineto
          30 -32 -43 29 -66 hhcurveto
          -117 -102 -92 -161 -150 84 -91 114 -9 hvcurveto
          -33 -63 rlineto
          -48 callgsubr
          endchar
        </CharString>
        <CharString name="ccircumflex">
          -18 203 callsubr
          179 37 hstem
          52 46 -82 callsubr
          106 333 -49 callsubr
          endchar
        </CharString>
        <CharString name="cdotaccent">
          -18 203 callsubr
          104 80 hstem
          52 46 136 76 -82 callsubr
          220 357 -97 callgsubr
        </CharString>
        <CharString name="cedilla">
          68 -208 210 hstem
          295 39 vstem
          228 -74 rmoveto
          -48 callgsubr
          29 56 rlineto
          -35 hlineto
          endchar
        </CharString>
        <CharString name="cent">
          12 80 39 385 39 hstem
          62 45 148 34 vstem
          255 121 rmoveto
          -91 13 -57 73 104 vvcurveto
          105 62 72 86 14 vhcurveto
          157 -329 rmoveto
          -32 -29 -42 -23 -49 -2 rrcurveto
          385 vlineto
          45 -2 36 -20 30 -27 24 28 rcurveline
          -31 30 -41 28 -63 2 rrcurveto
          109 -34 -111 vlineto
          -107 -11 -86 -81 -138 vvcurveto
          -137 80 -82 113 -11 vhcurveto
          -109 34 108 vlineto
          58 2 49 26 39 36 rrcurveto
          endchar
        </CharString>
        <CharString name="circumflex">
          68 671 37 hstem
          154 227 vstem
          154 572 8 callsubr
        </CharString>
        <CharString name="colon">
          -248 -12 91 291 91 hstem
          67 85 vstem
          67 415 rmoveto
          -54 callsubr
          -382 vmoveto
          -54 callsubr
          endchar
        </CharString>
        <CharString name="colon.sups">
          -308 432 75 161 156 callsubr
          470 rmoveto
          4 callsubr
          236 vmoveto
          4 callsubr
          endchar
        </CharString>
        <CharString name="colonmonetary">
          12 -12 38 -37 38 586 38 -6 -20 hstemhm
          65 47 150 30 hintmask 10101100
          274 610 rmoveto
          2 10 10 1 11 hhcurveto
          13 12 -2 -4 11 hvcurveto
          hintmask 01101100
          -69 -580 -24 3 -22 9 -19 14 rlinecurve
          -28 26 rmoveto
          -43 51 -24 85 107 vvcurveto
          145 46 102 83 33 vhcurveto
          hintmask 10011100
          186 -495 rmoveto
          -37 -51 -37 -27 -51 -3 68 568 rcurveline
          18 -12 16 -17 14 -20 29 27 rcurveline
          -18 25 -25 23 -30 14 14 115 rcurveline
          -30 hlineto
          -12 -104 rlineto
          hintmask 10101100
          4 -13 -14 2 -14 hhcurveto
          -9 -9 0 -1 -9 hvcurveto
          12 99 rlineto
          -31 hlineto
          -13 -105 rlineto
          -112 -30 -69 -118 -175 vvcurveto
          -137 41 -104 67 -53 vhcurveto
          -16 -137 rlineto
          31 hlineto
          14 119 20 -11 22 -6 24 -3 rlinecurve
          -12 -99 rlineto
          30 hlineto
          12 98 69 3 49 35 40 56 rlinecurve
          endchar
        </CharString>
        <CharString name="comma">
          -248 -5 84 hstem
          125 40 vstem
          62 -155 rmoveto
          57 callgsubr
        </CharString>
        <CharString name="comma.dnom">
          -308 -2 185 callgsubr
          -107 rmoveto
          46 20 32 46 49 -19 callsubr
        </CharString>
        <CharString name="comma.numr">
          -308 267 185 callgsubr
          162 rmoveto
          46 20 32 46 49 -19 callsubr
        </CharString>
        <CharString name="comma.subs">
          -308 -182 185 callgsubr
          -287 rmoveto
          46 20 32 45 50 -19 callsubr
        </CharString>
        <CharString name="comma.sups">
          -308 438 185 callgsubr
          333 rmoveto
          46 20 32 46 49 -19 callsubr
        </CharString>
        <CharString name="copyright">
          274 -12 31 105 37 311 37 113 30 hstem
          51 35 115 43 411 35 vstem
          51 322 -5 callsubr
          115 hmoveto
          -125 80 -73 95 64 37 27 32 36 vhcurveto
          -20 28 rlineto
          -28 -31 -36 -22 -48 hhcurveto
          -81 -53 62 99 90 57 60 79 40 27 -15 -29 31 hvcurveto
          23 26 rlineto
          32 -32 -35 23 -53 hhcurveto
          -95 -85 -71 -116 hvcurveto
          endchar
        </CharString>
        <CharString name="currency">
          12 137 37 310 37 hstem
          58 44 274 44 vstem
          57 114 rmoveto
          66 68 rlineto
          -29 32 41 -16 43 hhcurveto
          43 42 16 29 31 hvcurveto
          67 -68 26 28 -65 67 rlineto
          23 32 14 41 46 vvcurveto
          48 -14 42 -24 32 vhcurveto
          66 68 -26 28 -67 -69 rlineto
          28 -31 -42 16 -43 hhcurveto
          -43 -42 -16 -28 -31 hvcurveto
          -66 69 -27 -28 66 -68 rlineto
          -24 -32 -14 -42 -48 vvcurveto
          -46 14 -41 24 -32 vhcurveto
          -66 -67 rlineto
          72 186 rmoveto
          92 63 64 74 75 62 -64 -92 -91 -62 -63 -75 -74 -63 63 91 vhcurveto
          endchar
        </CharString>
        <CharString name="d">
          77 -12 68 callsubr
          309 44 hintmask 10111100
          -41 callgsubr
          -162 78 -89 121 64 53 35 39 39 vhcurveto
          3 hlineto
          hintmask 01111100
          16 callsubr
          hintmask 10111100
          -66 callgsubr
          endchar
        </CharString>
        <CharString name="d.sups">
          -100 261 33 268 33 198 callgsubr
          174 261 rmoveto
          40 28 21 24 27 hvcurveto
          4 hlineto
          6 -37 rlineto
          30 473 -37 -128 hlineto
          2 -57 rlineto
          24 -31 -29 14 -36 hhcurveto
          -75 -66 -63 -98 -111 52 -62 85 hvcurveto
          6 33 rmoveto
          -72 -32 54 86 73 47 55 56 29 32 -11 -29 32 hvcurveto
          -179 vlineto
          -31 -34 -28 -18 -30 hhcurveto
          endchar
        </CharString>
        <CharString name="dagger">
          -47 521 203 callgsubr
          hstem
          190.5 203 callgsubr
          vstem
          189 -80 rmoveto
          42 hlineto
          -2 602 132 -2 97 callgsubr
          2 rlineto
          endchar
        </CharString>
        <CharString name="daggerdbl">
          -47 71.5 39 411 39 hstem
          190.5 203 callgsubr
          vstem
          60 70 rmoveto
          132 3 -3 -153 rlineto
          42 hlineto
          -2 153 132 -3 rlineto
          42 vlineto
          -132 -3 2 207 -2 207 132 -3 97 callgsubr
          3 -3 -207 3 -207 -132 3 rlineto
          endchar
        </CharString>
        <CharString name="dcaron">
          82 -12 68 callsubr
          309 44 63.5 36.5 hintmask 10111110
          -41 callgsubr
          -162 78 -89 121 64 53 35 39 39 vhcurveto
          3 hlineto
          hintmask 01111110
          16 callsubr
          hintmask 10111110
          -66 callgsubr
          445 309 rmoveto
          108 callsubr
        </CharString>
        <CharString name="dcroat">
          77 -12 39 -6 -21 433 39 109 33 -33 138 70 callsubr
          hintmask 10110110
          408 106 rmoveto
          -51 -51 -47 -28 -53 hhcurveto
          -102 -56 81 121 115 73 89 96 47 42 -17 -45 51 hvcurveto
          119 243 rmoveto
          -75 hlineto
          hintmask 10101110
          105 -44 vlineto
          hintmask 10110110
          -105 -170 -33 170 -80 vlineto
          2 -88 rlineto
          37 -48 -39 22 -58 hhcurveto
          -114 -99 -94 -149 -156 78 -85 121 64 53 34 40 39 hvcurveto
          2 hlineto
          hintmask 01110110
          5 -62 rlineto
          38 581 hlineto
          75 4 rlineto
          endchar
        </CharString>
        <CharString name="degree">
          -156 447 32 174 31 hstem
          42 34 160 34 vstem
          156 447 rmoveto
          59 55 44 74 75 -55 44 -59 -59 -55 -44 -75 -74 55 -44 59 hvcurveto
          32 vmoveto
          -47 -33 37 49 51 33 37 47 47 33 -37 -51 -49 -33 -37 -47 hvcurveto
          endchar
        </CharString>
        <CharString name="dieresis">
          68 598 73 hstem
          152 73 85 73 vstem
          189 598 -59 callgsubr
        </CharString>
        <CharString name="divide">
          12 109 80 122 38 120 80 hstem
          201 76 vstem
          239 469 rmoveto
          -79 callsubr
          -25 17 -16 21 hvcurveto
          -38 -319 rmoveto
          -25 17 -16 21 -79 callsubr
          vhcurveto
          -167 161 rmoveto
          185 callsubr
          endchar
        </CharString>
        <CharString name="dollar">
          12 -11 38 585 38 hstem
          85 45 96 39 109 45 vstem
          402 580 rmoveto
          -34 36 -38 30 -65 4 rrcurveto
          99 -39 -99 vlineto
          -82 -9 -59 -62 -84 -203 289 55 -197 vvcurveto
          -73 -46 -50 -84 -69 -54 36 34 -38 vhcurveto
          -24 -31 39 -37 59 -35 69 -5 rlinecurve
          -99 39 99 vlineto
          89 8 65 61 95 228 -289 -59 175 vvcurveto
          66 47 49 69 62 30 -23 -37 38 vhcurveto
          endchar
        </CharString>
        <CharString name="dong">
          12 0 34 73 37 293 37 87 34 hstem
          69 44 230 41 vstem
          80 hmoveto
          335 34 -335 hlineto
          263 172 rmoveto
          -44 -38 -37 -18 -38 hhcurveto
          -76 -41 59 94 77 53 63 68 43 27 -15 -36 39 hvcurveto
          41 209 rmoveto
          78 -41 -78 -146 -34 146 -45 vlineto
          4 -93 rlineto
          31 -35 -29 20 -51 hhcurveto
          -86 -77 -70 -109 -122 61 -66 94 51 38 25 32 30 hvcurveto
          3 hlineto
          5 -47 rlineto
          33 444 hlineto
          81 5 rlineto
          29 vlineto
          endchar
        </CharString>
        <CharString name="dotaccent">
          68 596 80 hstem
          229 76 vstem
          267 596 -90 callgsubr
        </CharString>
        <CharString name="dotlessi">
          27 callgsubr
          35 callgsubr
          endchar
        </CharString>
        <CharString name="e">
          -53 callsubr
          -89 callgsubr
          endchar
        </CharString>
        <CharString name="e.sups">
          -137 261 32 128 30 111 33 hstem
          31 38 197 35 vstem
          182 261 -64 callsubr
        </CharString>
        <CharString name="eacute">
          -53 callsubr
          -89 callgsubr
          -53 440 28 callgsubr
        </CharString>
        <CharString name="eacute.sups">
          119 callgsubr
          135 647 rmoveto
          34 hlineto
          71 91 rlineto
          -44 hlineto
          -14 -468 -64 callsubr
        </CharString>
        <CharString name="ebreve">
          -53 callsubr
          84 32 hstemhm
          52 45 45 206 callgsubr
          23 42 hintmask 11111101
          -107 callgsubr
          -142 308 rmoveto
          hintmask 11111111
          104 callsubr
          hintmask 11111101
          -51 6 32 -68 81 hhcurveto
          endchar
        </CharString>
        <CharString name="ecaron">
          -53 callsubr
          80 37 -89 callgsubr
          -161 304 -18 callgsubr
        </CharString>
        <CharString name="ecircumflex">
          -53 callsubr
          179 37 -89 callgsubr
          -255 304 8 callsubr
        </CharString>
        <CharString name="edieresis">
          -53 callsubr
          106 73 hstemhm
          52 45 49 73 84 74 26 42 hintmask 11111101
          -107 callgsubr
          -221 330 rmoveto
          137 callgsubr
          hintmask 11111111
          158 hmoveto
          21 16 16 21 20 -16 190 callgsubr
          endchar
        </CharString>
        <CharString name="edotaccent">
          -53 callsubr
          104 80 hstem
          52 45 126 76 104 42 vstem
          -107 callgsubr
          -142 328 -90 callgsubr
        </CharString>
        <CharString name="egrave">
          -53 callsubr
          -89 callgsubr
          -124 304 11 callsubr
        </CharString>
        <CharString name="egrave.sups">
          119 callgsubr
          183 647 rmoveto
          34 hlineto
          -60 91 rlineto
          -44 hlineto
          69 -468 -64 callsubr
        </CharString>
        <CharString name="eight">
          12 175 callsubr
          hstemhm
          40 92 callgsubr
          84 -93 callsubr
        </CharString>
        <CharString name="eight.dnom">
          -105 -12 32 348 34 hstemhm
          49 47 callsubr
          hintmask 11100100
          87 99 rmoveto
          38 22 33 43 24 vhcurveto
          61 -23 59 -14 -58 vvcurveto
          -43 -42 -36 -51 -56 -36 39 -84 callgsubr
        </CharString>
        <CharString name="eight.numr">
          -105 257 32 348 34 hstemhm
          49 47 callsubr
          hintmask 11100100
          87 368 rmoveto
          38 22 33 43 24 vhcurveto
          61 -23 59 -14 -58 vvcurveto
          -43 -42 -36 -51 -56 -36 39 -84 callgsubr
        </CharString>
        <CharString name="eight.onum">
          35 175 callsubr
          hstemhm
          48 92 callgsubr
          92 -93 callsubr
        </CharString>
        <CharString name="eight.pnum">
          44 175 callsubr
          hstemhm
          57 92 callgsubr
          101 -93 callsubr
        </CharString>
        <CharString name="eight.sc">
          9 -12 37 463 36 hstemhm
          58 43 -11 43 226 42 -24 44 hintmask 11100100
          101 133 rmoveto
          56 48 42 56 28 vhcurveto
          91 -31 81 -27 -76 vvcurveto
          -58 -52 -42 -81 -83 -60 46 62 vhcurveto
          hintmask 11011000
          183 137 rmoveto
          -76 26 -75 29 70 vvcurveto
          56 45 37 64 75 42 -45 -57 -42 -27 -40 -48 -34 vhcurveto
          hintmask 11100100
          -226 -141 rmoveto
          -80 78 -61 107 106 72 60 76 70 -51 34 -50 27 vhcurveto
          3 vlineto
          hintmask 11011000
          34 25 47 49 56 vvcurveto
          78 -58 58 -99 -86 -68 -52 -77 -53 41 -39 42 -25 201 callgsubr
          -54 -26 -61 -49 -70 vvcurveto
          endchar
        </CharString>
        <CharString name="eight.subs">
          -105 -192 31 349 34 hstemhm
          49 47 callsubr
          hintmask 11100100
          87 -81 rmoveto
          38 22 32 43 25 vhcurveto
          61 -23 59 -14 -58 vvcurveto
          -44 -42 -36 -51 -56 -36 40 -84 callgsubr
        </CharString>
        <CharString name="eight.sups">
          -105 428 32 348 34 hstemhm
          49 47 callsubr
          hintmask 11100100
          87 539 rmoveto
          38 22 33 43 24 vhcurveto
          61 -23 59 -14 -58 vvcurveto
          -43 -42 -36 -51 -56 -36 39 -84 callgsubr
        </CharString>
        <CharString name="eight.tnum">
          12 175 callsubr
          hstemhm
          40 92 callgsubr
          84 -93 callsubr
        </CharString>
        <CharString name="ellipsis">
          464 -12 91 hstem
          104 85 252 85 253 84 vstem
          104 33 rmoveto
          -54 callsubr
          337 hmoveto
          -54 callsubr
          338 hmoveto
          -28 20 -17 22 20 callgsubr
          -20 -17 -29 vhcurveto
          endchar
        </CharString>
        <CharString name="emacron">
          -53 callsubr
          114 36 hstemhm
          52 45 51 227 28 42 hintmask 11111010
          -107 callgsubr
          hintmask 11111110
          -255 338 -35 callsubr
          endchar
        </CharString>
        <CharString name="emdash">
          107 callsubr
        </CharString>
        <CharString name="emdash.sc">
          215 254 36 hstem
          40 602 vstem
          40 254 rmoveto
          602 36 -602 hlineto
          endchar
        </CharString>
        <CharString name="emdash.sups">
          94 622 28 hstem
          40 482 vstem
          40 622 rmoveto
          482 28 -482 hlineto
          endchar
        </CharString>
        <CharString name="endash">
          13 119 callsubr
        </CharString>
        <CharString name="endash.sc">
          -56 254 36 hstem
          40 329 vstem
          40 254 rmoveto
          329 36 -329 hlineto
          endchar
        </CharString>
        <CharString name="endash.sups">
          -120 622 28 hstem
          40 268 vstem
          40 622 rmoveto
          268 28 -268 hlineto
          endchar
        </CharString>
        <CharString name="eogonek">
          16 202 callsubr
          38 208 34 186 38 hstem
          52 45 177 38 91 42 vstem
          -41 callgsubr
          -157 99 -94 123 22 20 2 7 21 vhcurveto
          -28 -24 -35 -45 -50 41 callgsubr
          -13 -12 -4 -18 hhcurveto
          -26 -23 18 34 44 27 44 86 63 hvcurveto
          -18 34 rlineto
          -26 -36 -41 -17 -52 hhcurveto
          -108 -71 87 121 -2 hvcurveto
          346 hlineto
          2 12 0 10 14 vvcurveto
          141 -70 81 -114 -107 -102 -96 -157 vhcurveto
          45 29 rmoveto
          116 10 73 70 82 hhcurveto
          87 54 -63 -123 hvcurveto
          endchar
        </CharString>
        <CharString name="equal">
          181 callgsubr
          34 413 rmoveto
          185 callsubr
          -242 vmoveto
          185 callsubr
          endchar
        </CharString>
        <CharString name="estimated">
          333 -12 20 308 18 306 20 hstem
          46 130 450 128 vstem
          184 108 rmoveto
          -4 6 -4 6 8 vvcurveto
          184 vlineto
          2 2 2 2 vhcurveto
          574 hlineto
          2 0 4 2 vvcurveto
          186 -158 150 -196 -196 -158 -150 -186 -186 158 -150 196 114 102 52 80 66 vhcurveto
          -52 hlineto
          -68 -56 -82 -44 -90 hhcurveto
          -86 -78 38 62 -54 hvcurveto
          -4 226 rmoveto
          -2 -2 2 4 hvcurveto
          180 vlineto
          8 4 8 4 6 vhcurveto
          60 56 76 38 86 hhcurveto
          82 76 -36 -58 56 hvcurveto
          6 -6 4 -8 -8 vvcurveto
          -184 vlineto
          -4 -2 -2 -4 vhcurveto
          endchar
        </CharString>
        <CharString name="eth">
          68 -12 39 377 38 282 -20 hstem
          60 44 321 45 vstem
          267 27 rmoveto
          -89 -74 79 113 99 57 86 108 50 52 -16 -75 51 hvcurveto
          2 -20 1 -20 -22 vvcurveto
          -125 -49 -99 -109 vhcurveto
          201 649 rmoveto
          -15 27 -142 -74 -42 38 -47 31 -49 26 rlinecurve
          -22 -30 44 -25 42 -27 37 -32 rlinecurve
          -132 -68 15 -28 142 74 56 -55 42 -69 18 -98 rlinecurve
          51 -39 -52 25 -57 hhcurveto
          -123 -84 -91 -132 -144 100 -87 107 120 83 104 160 163 -56 111 -79 81 hvcurveto
          endchar
        </CharString>
        <CharString name="exclam">
          -208 -12 91 -70 -21 682 -20 hstemhm
          87 85 -65 42 hintmask 01101000
          113 179 rmoveto
          33 hlineto
          6 420 1 71 rlineto
          -46 -71 hlineto
          hintmask 01110000
          -20 -566 rmoveto
          -28 21 -17 22 207 callsubr
          vhcurveto
          hintmask 10110000
          29 -20 17 -22 vhcurveto
          hintmask 01110000
          -22 -21 -17 -29 hvcurveto
          endchar
        </CharString>
        <CharString name="exclamdown">
          -208 401 91 0 -20 hstemhm
          87 85 -65 42 hintmask 01010000
          146 301 rmoveto
          -33 hlineto
          -6 -420 rlineto
          -71 46 vlineto
          -1 71 rlineto
          hintmask 01100000
          20 567 rmoveto
          27 -20 17 -22 -22 -21 -17 -27 vhcurveto
          hintmask 10100000
          -30 21 -17 22 vhcurveto
          hintmask 01100000
          22 20 17 30 hvcurveto
          endchar
        </CharString>
        <CharString name="f">
          -204 21 -21 442 38 213 38 hstem
          99 44 vstem
          288 715 rmoveto
          177 callgsubr
          vlineto
          -66 -4 rlineto
          -34 66 43 callgsubr
          69 24 40 51 18 20 -4 -10 20 vhcurveto
          endchar
        </CharString>
        <CharString name="f.sups">
          -284 556 31 131 32 hstem
          67 37 vstem
          201 740 rmoveto
          8 -18 -13 2 -19 hhcurveto
          -55 -29 -41 -63 hvcurveto
          -59 vlineto
          -46 -3 rlineto
          -28 46 -287 37 287 74 31 -74 63 vlineto
          39 16 29 33 17 12 -4 -4 10 vhcurveto
          endchar
        </CharString>
        <CharString name="f_f">
          59 21 -21 442 38 203 38 -28 38 -10 -20 hstemhm
          99 44 222 44 hintmask 11010110
          554 715 rmoveto
          177 callgsubr
          -222 86 vlineto
          hintmask 11100110
          74 29 43 57 23 22 -4 -12 24 vhcurveto
          hintmask 11001110
          12 36 rlineto
          hintmask 11100110
          12 -26 -29 6 -26 hhcurveto
          -82 -48 -52 -100 hvcurveto
          -89 vlineto
          -65 -4 rlineto
          -34 65 -442 44 442 222 43 callgsubr
          hintmask 11010110
          69 24 40 51 18 20 -4 -10 20 vhcurveto
          endchar
        </CharString>
        <CharString name="f_t">
          72 211 callgsubr
          hstemhm
          99 44 187 44 hintmask 10111100
          516 42 rmoveto
          -8 -17 -25 -7 -18 hhcurveto
          -66 -16 41 61 hvcurveto
          313 140 38 -140 139 -37 vlineto
          -6 -139 rlineto
          -188 104 hlineto
          69 24 40 51 18 20 -4 -10 20 vhcurveto
          12 36 rlineto
          177 callgsubr
          vlineto
          -66 -4 rlineto
          -34 66 vlineto
          hintmask 01111100
          -442 44 442 187 -309 vlineto
          hintmask 10111100
          -86 27 -59 92 20 31 8 10 28 vhcurveto
          endchar
        </CharString>
        <CharString name="fi">
          42 21 -21 442 38 116 79 18 38 hstemhm
          99 44 213 80 -63 44 hintmask 11011010
          99 480 rmoveto
          -66 -4 rlineto
          -34 66 -6 callgsubr
          274 -587 rmoveto
          44 480 -44 hlineto
          hintmask 11111100
          23 195 rmoveto
          -22 -18 -15 -25 -23 18 -16 22 22 18 16 23 25 -18 15 -22 hvcurveto
          endchar
        </CharString>
        <CharString name="figuredash">
          12 119 callsubr
        </CharString>
        <CharString name="five">
          -25 callsubr
        </CharString>
        <CharString name="five.dnom">
          -105 -12 110 callsubr
          63 -75 callsubr
          endchar
        </CharString>
        <CharString name="five.numr">
          -105 257 110 callsubr
          332 -75 callsubr
          endchar
        </CharString>
        <CharString name="five.onum">
          -25 callgsubr
        </CharString>
        <CharString name="five.pnum">
          -25 callsubr
        </CharString>
        <CharString name="five.sc">
          -20 -12 38 261 35 152 38 hstem
          350 47 vstem
          35 57 rmoveto
          -33 36 50 -36 92 hhcurveto
          92 92 61 111 111 -80 51 -96 -39 -31 -12 -15 -28 hvcurveto
          15 179 rlineto
          228 38 -266 hlineto
          -20 -244 29 -17 rlineto
          21 33 29 15 44 hhcurveto
          81 54 -50 -78 -81 -64 -52 -74 -78 -43 31 30 -33 hvcurveto
          endchar
        </CharString>
        <CharString name="five.subs">
          -105 -192 110 callsubr
          -118 rmoveto
          -39 29 44 -35 68 hhcurveto
          74 58 52 82 87 -56 46 -71 -30 -23 -9 -11 -20 hvcurveto
          13 119 rlineto
          166 36 -199 hlineto
          -20 -185 24 -17 rlineto
          18 21 25 19 36 hhcurveto
          57 38 -40 -62 -61 -40 -41 -53 -51 -35 26 37 -26 hvcurveto
          endchar
        </CharString>
        <CharString name="five.sups">
          -105 428 110 callsubr
          503 -75 callsubr
          endchar
        </CharString>
        <CharString name="five.tnum">
          -25 callgsubr
        </CharString>
        <CharString name="fiveeighths">
          337 -12 32 237 33 78 34 92 30 99 36 hstemhm
          274 39 178 47 callsubr
          hintmask 1111111001000000
          40 332 -75 callsubr
          167 -366 -56 callgsubr
          332 -3 callgsubr
          hintmask 1111110110000000
          -7 callgsubr
          hintmask 1111111001000000
          -67 callsubr
          hintmask 1111110110000000
          24 18 36 -62 callsubr
          hintmask 1111111001000000
          -39 -22 -36 -40 -51 vvcurveto
          endchar
        </CharString>
        <CharString name="fl">
          33 211 callgsubr
          -12 -20 hstemhm
          99 44 212 44 hintmask 10110110
          99 480 rmoveto
          -66 -4 rlineto
          -34 66 vlineto
          hintmask 01110110
          -6 callgsubr
          hintmask 10101110
          339 -558 rmoveto
          -2 -10 -4 0 -4 hhcurveto
          -12 -9 10 21 hvcurveto
          661 -44 -655 vlineto
          -52 20 -24 39 14 8 187 callsubr
          endchar
        </CharString>
        <CharString name="fl.a">
          42 442 38 213 38 hstem
          99 44 230 44 vstem
          99 480 rmoveto
          -66 -4 rlineto
          -34 66 -6 callgsubr
          274 132 rmoveto
          -719 44 719 vlineto
          endchar
        </CharString>
        <CharString name="four">
          12 193 callsubr
          310 43 hintmask 11011000
          70 229 rmoveto
          hintmask 11101000
          188 85 callsubr
          -40 hlineto
          -297 -422 rlineto
          -26 294 -191 43 191 95 vlineto
          endchar
        </CharString>
        <CharString name="four.dnom">
          -105 114 139 callgsubr
          146 rmoveto
          73 -23 callsubr
          -114 36 163 callgsubr
        </CharString>
        <CharString name="four.numr">
          -105 383 139 callgsubr
          415 rmoveto
          73 -23 callsubr
          -114 36 163 callgsubr
        </CharString>
        <CharString name="four.onum">
          35 101 39 361 70 0 -20 hstemhm
          318 43 hintmask 10110000
          78 13 callsubr
        </CharString>
        <CharString name="four.pnum">
          28 193 callsubr
          326 43 hintmask 11011000
          87 229 rmoveto
          hintmask 11101000
          187 85 callsubr
          -39 hlineto
          -297 -422 rlineto
          -26 293 -191 43 191 95 vlineto
          endchar
        </CharString>
        <CharString name="four.sc">
          -11 0 187 -37 37 267 58 0 -20 hstemhm
          298 43 hintmask 01011000
          89 187 rmoveto
          hintmask 01101000
          161 203 19 24 13 17 15 23 rlinecurve
          3 hlineto
          -1 -25 -1 -42 -25 vvcurveto
          -175 vlineto
          127 hmoveto
          -84 325 -43 hlineto
          -263 -335 rlineto
          -27 263 vlineto
          hintmask 10011000
          -150 43 vlineto
          hintmask 01011000
          150 84 vlineto
          endchar
        </CharString>
        <CharString name="four.subs">
          -105 -66 31 192 53 hstem
          223 36 vstem
          94 -35 rmoveto
          73 109 56 83 -20 callsubr
          -4 -104 rlineto
          -88 vlineto
          94 hmoveto
          -58 245 -36 hlineto
          -177 -255 rlineto
          -21 177 -114 36 163 callgsubr
        </CharString>
        <CharString name="four.sups">
          -105 554 139 callgsubr
          586 rmoveto
          73 -23 callsubr
          -114 36 163 callgsubr
        </CharString>
        <CharString name="four.tnum">
          12 101 39 361 70 0 -20 hstemhm
          310 43 hintmask 10110000
          70 13 callsubr
        </CharString>
        <CharString name="fraction">
          9 callgsubr
        </CharString>
        <CharString name="g">
          -62 callgsubr
          83 callgsubr
          243 43 22 45 hintmask 1101100100110000
          -95 callgsubr
          hintmask 1101100001100000
          -81 callgsubr
          hintmask 1101001010100000
          -58 callsubr
          hintmask 1011100001100000
          -34 callgsubr
          hintmask 1101100100110000
          96 callsubr
          hintmask 1101010010100000
          -69 callgsubr
          endchar
        </CharString>
        <CharString name="g.a">
          -30 callgsubr
          hstemhm
          53 46 309 44 hintmask 11101100
          -73 callsubr
          hintmask 11011100
          522 -39 vlineto
          hintmask 11101100
          -102 callgsubr
          endchar
        </CharString>
        <CharString name="g.supa">
          -100 119 34 120 34 254 34 198 callgsubr
          75 184 rmoveto
          -16 -29 rlineto
          -22 33 39 -14 41 hhcurveto
          86 51 52 78 hvcurveto
          338 -29 vlineto
          -5 -31 rlineto
          -3 hlineto
          25 -28 -30 14 -35 hhcurveto
          -76 -66 -63 -100 -97 52 -62 86 39 27 20 27 33 hvcurveto
          -2 -49 rlineto
          -19 vlineto
          -60 -36 -39 -63 -34 -34 10 21 -30 vhcurveto
          105 123 rmoveto
          -71 -33 53 74 73 47 54 57 28 32 -11 -28 32 hvcurveto
          -167 vlineto
          -31 -34 -28 -17 -30 hhcurveto
          endchar
        </CharString>
        <CharString name="g.sups">
          -135 119 30 117 35 67 30 155 32 -22 32 hstemhm
          34 35 -23 36 -30 35 157 35 6 37 hintmask 1111010001000000
          69 211 rmoveto
          21 13 21 26 17 vhcurveto
          -4 14 18 0 9 hhcurveto
          64 hlineto
          46 26 -12 -32 -37 -46 -36 -68 -65 -37 23 39 hvcurveto
          -35 -5 rmoveto
          -55 50 -32 81 97 60 51 56 53 -34 22 -74 vhcurveto
          hintmask 1111000110000000
          -67 hlineto
          -45 -15 15 23 19 11 13 13 10 hvcurveto
          -10 16 19 -3 17 hhcurveto
          64 52 46 67 28 -13 29 -18 15 hvcurveto
          70 32 -105 hlineto
          hintmask 1110101010000000
          6 -15 -14 4 -21 hhcurveto
          -65 -52 -46 -67 -38 20 -31 21 -17 hvcurveto
          -4 vlineto
          hintmask 1111000110000000
          -16 -11 -19 -20 -26 vvcurveto
          -24 12 -18 16 -10 vhcurveto
          -4 vlineto
          hintmask 1111010001000000
          -30 -20 -16 -25 -28 vvcurveto
          hintmask 1110101010000000
          129 192 rmoveto
          -47 -34 34 50 51 34 30 47 43 38 -31 -50 -50 -38 -34 -43 hvcurveto
          endchar
        </CharString>
        <CharString name="gbreve">
          -62 callgsubr
          84 32 83 callgsubr
          -9 33 172 32 15 43 22 45 hintmask 1101100110000110
          -95 callgsubr
          hintmask 1101100100100100
          -81 callgsubr
          hintmask 1101001101000100
          -58 callsubr
          hintmask 1011100100100100
          -34 callgsubr
          hintmask 1101100110000110
          96 callsubr
          hintmask 1101010101000100
          -69 callgsubr
          hintmask 1101100100011100
          -9 388 rmoveto
          81 32 68 51 5 hvcurveto
          -32 hlineto
          -43 -6 58 callgsubr
          endchar
        </CharString>
        <CharString name="gbreve.a">
          -30 callgsubr
          116 32 hstemhm
          53 46 62 206 callgsubr
          9 44 hintmask 1110110010000000
          -73 callsubr
          hintmask 1101110010000000
          522 -39 vlineto
          hintmask 1110110010000000
          -102 callgsubr
          hintmask 1110111110000000
          22 537 rmoveto
          82 31 21 callsubr
          endchar
        </CharString>
        <CharString name="gcaron">
          -62 callgsubr
          80 -77 callgsubr
          -29 384 -56 callsubr
        </CharString>
        <CharString name="gcaron.a">
          -30 callgsubr
          112 37 hstemhm
          53 46 309 44 hintmask 11100110
          -73 callsubr
          hintmask 11010110
          522 -39 vlineto
          hintmask 11100110
          -102 callgsubr
          hintmask 11101110
          2 533 rmoveto
          39 hlineto
          95 33 callsubr
          -37 hlineto
          endchar
        </CharString>
        <CharString name="gcircumflex">
          -62 callgsubr
          179 -77 callgsubr
          -123 384 -49 callsubr
          endchar
        </CharString>
        <CharString name="gcircumflex.a">
          -30 callgsubr
          211 37 hstemhm
          53 46 309 44 hintmask 11100110
          -73 callsubr
          hintmask 11010110
          522 -39 vlineto
          hintmask 11100110
          -102 callgsubr
          hintmask 11101110
          -92 533 rmoveto
          37 -9 callgsubr
          -95 56 callsubr
          endchar
        </CharString>
        <CharString name="gdotaccent">
          -62 callgsubr
          104 80 83 callgsubr
          72 76 95 43 22 45 hintmask 1101100010001100
          -95 callgsubr
          hintmask 1101100000101000
          -81 callgsubr
          hintmask 1101001001001000
          -58 callsubr
          hintmask 1011100000101000
          -34 callgsubr
          hintmask 1101100010001100
          96 callsubr
          hintmask 1101010101011000
          -69 callgsubr
          -9 408 -97 callgsubr
        </CharString>
        <CharString name="gdotaccent.a">
          -30 callgsubr
          136 80 hstemhm
          53 46 143 76 90 44 hintmask 11100101
          -73 callsubr
          hintmask 11010101
          522 -39 vlineto
          hintmask 11100101
          -102 callgsubr
          hintmask 11101111
          22 557 rmoveto
          -88 callgsubr
          -22 -16 -21 callsubr
          16 189 callsubr
        </CharString>
        <CharString name="germandbls">
          75 -12 38 -5 -21 691 38 hstemhm
          92 44 123 44 54 45 66 45 hintmask 01111110
          92 hmoveto
          44 517 hlineto
          119 50 55 76 63 32 -42 -58 vhcurveto
          -90 -98 -31 -97 vvcurveto
          hintmask 10111110
          -144 209 35 -139 vvcurveto
          -51 -34 -48 -67 -43 -33 15 31 -38 vhcurveto
          -22 -33 rlineto
          -31 38 46 -20 52 hhcurveto
          85 61 60 79 hvcurveto
          168 -210 -33 115 80 99 35 103 vvcurveto
          75 -52 59 -87 -104 -67 -74 -123 vhcurveto
          endchar
        </CharString>
        <CharString name="germandbls.sc">
          436 204 callgsubr
          hstem
          76 46 247 47 107 46 247 46 -101 callsubr
          419 -33 rmoveto
          -44 45 63 -32 83 hhcurveto
          109 69 60 80 84 -49 26 -75 30 hvcurveto
          -72 30 rlineto
          -61 25 -36 21 52 vvcurveto
          55 46 35 72 55 45 -22 -31 32 vhcurveto
          27 30 rlineto
          33 -34 -55 28 -69 hhcurveto
          -95 -70 -52 -79 -69 55 -37 71 -28 hvcurveto
          70 -29 rlineto
          55 -23 42 -19 -63 vvcurveto
          -59 -50 -40 -81 -67 -56 28 43 -41 vhcurveto
          endchar
        </CharString>
        <CharString name="grave">
          68 174 callgsubr
          179 144 vstem
          285 572 11 callsubr
        </CharString>
        <CharString name="greater">
          12 146 372 hstem
          399 46 vstem
          445 354 rmoveto
          -411 164 rlineto
          -43 vlineto
          232 -90 133 -51 rlineto
          -4 vlineto
          -133 -51 -232 -90 rlineto
          -43 vlineto
          411 164 rlineto
          endchar
        </CharString>
        <CharString name="greaterequal">
          12 -1000 10 hstem
          34 hmoveto
          411 37 -411 hlineto
          411 321 rmoveto
          -411 160 rlineto
          -43 vlineto
          232 -88 133 -50 rlineto
          -4 vlineto
          -133 -50 -232 -88 rlineto
          -43 vlineto
          411 160 rlineto
          endchar
        </CharString>
        <CharString name="guillemotleft">
          -68 72 360 hstem
          43 39 101 40 91 callgsubr
          278 -161 rmoveto
          24 19 -122 161 122 159 -24 21 -138 -161 rlineto
          -38 vlineto
          endchar
        </CharString>
        <CharString name="guillemotright">
          -68 72 360 hstem
          176 40 101 39 91 callsubr
          19 -161 rmoveto
          24 -19 137 161 rlineto
          38 vlineto
          -137 161 -24 -21 122 -159 rlineto
          endchar
        </CharString>
        <CharString name="guilsinglleft">
          -208 72 360 hstem
          43 39 91 callgsubr
          endchar
        </CharString>
        <CharString name="guilsinglright">
          -208 72 360 hstem
          176 40 91 callsubr
          endchar
        </CharString>
        <CharString name="h">
          61 21 199 callgsubr
          hstem
          92 44 267 44 vstem
          -92 callgsubr
          -50 -50 vhcurveto
          106 vlineto
          208 -44 vlineto
          endchar
        </CharString>
        <CharString name="h.sups">
          -111 105 callgsubr
          29 hhcurveto
          60 147 callgsubr
          -40 -26 -31 -29 vhcurveto
          1 70 rlineto
          134 -37 vlineto
          endchar
        </CharString>
        <CharString name="hbar">
          61 21 -21 432 40 109 33 -33 138 hstemhm
          92 44 267 44 hintmask 11101100
          136 491 rmoveto
          90 190 33 -190 vlineto
          hintmask 11011100
          105 -44 vlineto
          hintmask 11101100
          -105 vlineto
          -77 -4 rlineto
          -29 77 -581 44 342 vlineto
          60 59 41 30 57 hhcurveto
          78 32 -48 -102 hvcurveto
          -282 44 288 -34 callsubr
          -50 -50 vhcurveto
          endchar
        </CharString>
        <CharString name="hcircumflex">
          61 21 199 callgsubr
          122 33 hstem
          92 44 267 44 vstem
          -92 callgsubr
          -50 -50 vhcurveto
          106 vlineto
          208 -44 vlineto
          -53 29 rmoveto
          75 73 130 callgsubr
          -73 -87 callsubr
          endchar
        </CharString>
        <CharString name="hungarumlaut">
          68 570 138 hstem
          185 251 vstem
          185 570 97 callsubr
        </CharString>
        <CharString name="hyphen">
          107 callgsubr
        </CharString>
        <CharString name="hyphen.sc">
          -202 251 39 hstem
          40 185 vstem
          40 251 rmoveto
          185 39 -185 hlineto
          endchar
        </CharString>
        <CharString name="hyphen.sups">
          -240 619 31 hstem
          40 150 vstem
          40 619 rmoveto
          150 31 -150 hlineto
          endchar
        </CharString>
        <CharString name="i">
          13 callgsubr
        </CharString>
        <CharString name="i.sups">
          -314 659 62 hstemhm
          46 64 -52 37 hintmask 11000000
          78 659 130 callsubr
          hintmask 10100000
          -20 -390 rmoveto
          37 318 -37 hlineto
          endchar
        </CharString>
        <CharString name="i.trk">
          13 callgsubr
        </CharString>
        <CharString name="iacute">
          27 callgsubr
          35 callgsubr
          111 228 28 callgsubr
        </CharString>
        <CharString name="icircumflex">
          27 callgsubr
          211 37 35 callgsubr
          -91 92 8 callsubr
        </CharString>
        <CharString name="idieresis">
          27 callgsubr
          138 73 hstemhm
          -1 73 20 44 21 73 hintmask 11101000
          198 callsubr
          hintmask 11111100
          -56 118 -59 callgsubr
        </CharString>
        <CharString name="igrave">
          27 callgsubr
          35 callgsubr
          40 92 11 callsubr
        </CharString>
        <CharString name="imacron">
          27 callgsubr
          146 36 35 callgsubr
          -91 126 -35 callsubr
          endchar
        </CharString>
        <CharString name="infinity">
          296 167 44 -29 38 214 44 -21 37 hstemhm
          41 40 601 40 hintmask 01011100
          182 182 rmoveto
          88 55 72 38 35 hvcurveto
          4 hlineto
          hintmask 10011100
          -72 59 55 -53 86 hhcurveto
          94 64 71 95 95 -65 66 -95 -88 -63 -66 -61 -45 hvcurveto
          -4 hlineto
          hintmask 01101100
          46 -36 -54 65 -83 hhcurveto
          -82 -66 -58 -92 hvcurveto
          hintmask 01011100
          -83 66 -63 75 vhcurveto
          hintmask 10011100
          204 152 rmoveto
          77 54 53 46 65 hhcurveto
          79 45 -55 -71 -66 -43 -54 -73 -65 -50 39 84 -65 hvcurveto
          hintmask 01101100
          -199 -114 rmoveto
          -57 -49 44 67 66 47 37 58 58 46 -43 -65 50 hvcurveto
          -57 -39 -51 -49 -63 hhcurveto
          endchar
        </CharString>
        <CharString name="integral">
          -168 -158 38 870 38 hstemhm
          123 43 2 41 hintmask 11010000
          65 -116 rmoveto
          -7 -36 rlineto
          -4 8 15 -2 19 hhcurveto
          89 20 94 124 hvcurveto
          hintmask 11100000
          138 -43 233 142 vvcurveto
          108 10 69 57 14 12 -2 -2 8 vhcurveto
          7 36 rlineto
          4 -6 -17 2 -17 hhcurveto
          -91 -20 -95 -123 hvcurveto
          hintmask 11010000
          -137 45 -235 -142 vvcurveto
          -108 -10 -68 -59 -14 -12 2 2 -8 vhcurveto
          endchar
        </CharString>
        <CharString name="iogonek">
          -238 -203 35 189 -24 callsubr
          136 79 hstemhm
          37 38 -2 81 -62 44 hintmask 11110010
          92 hmoveto
          7 hlineto
          hintmask 11111010
          -29 -32 -33 -39 -51 41 callgsubr
          -14 -12 -4 -17 hhcurveto
          -25 -24 18 34 hvcurveto
          hintmask 11110010
          214 callgsubr
          hintmask 11110100
          21 108 callgsubr
        </CharString>
        <CharString name="iogonek.d">
          -238 -203 35 189 -24 callsubr
          hstemhm
          37 38 17 44 hintmask 11101000
          92 hmoveto
          7 hlineto
          hintmask 11111000
          -29 -32 -33 -39 -51 41 callgsubr
          -14 -12 -4 -17 hhcurveto
          -25 -24 18 34 hvcurveto
          hintmask 11101000
          214 callgsubr
          endchar
        </CharString>
        <CharString name="itilde">
          27 callgsubr
          121 164 callgsubr
          -10 31 71 44 72 30 hintmask 11011100
          198 callsubr
          -102 101 149 callgsubr
          hintmask 11111110
          162 callgsubr
          -4 -12 -21 -22 hhcurveto
          hintmask 11011100
          201 callsubr
          -47 -19 -46 -43 -3 hvcurveto
          endchar
        </CharString>
        <CharString name="j">
          138 callsubr
          136 79 hstemhm
          75 81 -64 45 hintmask 10110100
          98 callgsubr
          hintmask 01110100
          -11 -36 rlineto
          hintmask 10110100
          78 callsubr
          hintmask 10111000
          23 108 callgsubr
        </CharString>
        <CharString name="j.sups">
          -310 119 34 506 62 hstemhm
          48 64 -52 37 hintmask 10010000
          21 119 rmoveto
          51 25 32 71 hvcurveto
          365 -37 -369 vlineto
          -40 -8 -25 -35 -14 -6 2 4 -9 vhcurveto
          -10 -32 rlineto
          -6 16 9 -2 18 hhcurveto
          hintmask 11100000
          59 540 130 callsubr
          endchar
        </CharString>
        <CharString name="jcircumflex">
          138 callsubr
          211 37 hstemhm
          92 45 hintmask 10111000
          98 callgsubr
          hintmask 01111000
          -11 -36 rlineto
          hintmask 10111000
          78 callsubr
          -91 92 -49 callsubr
          endchar
        </CharString>
        <CharString name="k">
          -3 191 callsubr
          vstem
          -15 callgsubr
          endchar
        </CharString>
        <CharString name="k.sups">
          -150 167 callsubr
          82 hlineto
          68 81 105 -163 rlineto
          44 hlineto
          -125 190 108 128 rlineto
          -45 hlineto
          -151 -181 rlineto
          -4 336 -37 hlineto
          endchar
        </CharString>
        <CharString name="kgreenlandic">
          -3 84 callsubr
          44 callsubr
          130 hlineto
          108 127 159 -257 rlineto
          49 hlineto
          -182 290 156 190 rlineto
          -51 hlineto
          -236 -291 rlineto
          -3 291 -44 hlineto
          endchar
        </CharString>
        <CharString name="l">
          -230 -12 39 692 -20 hstem
          92 44 vstem
          -80 callsubr
          endchar
        </CharString>
        <CharString name="l.a">
          -238 21 -21 719 -20 44 callsubr
          719 -44 hlineto
          endchar
        </CharString>
        <CharString name="l.supa">
          -314 167 callsubr
          473 -37 hlineto
          endchar
        </CharString>
        <CharString name="l.sups">
          -305 261 33 hstem
          58 37 vstem
          58 322 rmoveto
          -40 13 -21 35 12 7 2 3 7 vhcurveto
          -7 30 rlineto
          -2 -6 -4 0 -4 hhcurveto
          -10 -6 6 17 hvcurveto
          425 -37 vlineto
          endchar
        </CharString>
        <CharString name="lacute">
          -230 -12 39 692 -20 61 106 hstem
          92 44 vstem
          -80 callsubr
          128 147 144 callsubr
        </CharString>
        <CharString name="lacute.a">
          -238 21 -21 719 -20 61 106 44 callsubr
          719 -44 hlineto
          129 147 35 callsubr
          endchar
        </CharString>
        <CharString name="lcaron">
          -233 -12 39 692 -20 hstem
          92 44 64 37 vstem
          -80 callsubr
          131 callgsubr
        </CharString>
        <CharString name="lcaron.a">
          -233 21 -21 719 -20 hstem
          92 44 64 37 160 callsubr
          719 -44 hlineto
          131 callgsubr
        </CharString>
        <CharString name="ldot">
          -159 -12 39 251 91 350 -20 hstem
          92 44 89 85 vstem
          -80 callsubr
          133 -396 51 callgsubr
        </CharString>
        <CharString name="ldot.a">
          -159 21 -21 278 91 350 -20 hstem
          92 44 90 85 160 callsubr
          719 -44 hlineto
          134 -396 51 callgsubr
        </CharString>
        <CharString name="less">
          12 146 372 hstem
          34 46 vstem
          34 310 rmoveto
          411 -164 rlineto
          43 vlineto
          -232 90 -133 51 rlineto
          4 vlineto
          133 51 232 90 rlineto
          43 vlineto
          -411 -164 rlineto
          endchar
        </CharString>
        <CharString name="lessequal">
          12 0 37 hstem
          34 46 vstem
          34 hmoveto
          411 37 -411 hlineto
          275 vmoveto
          411 -160 rlineto
          43 vlineto
          -232 88 -133 50 rlineto
          4 vlineto
          133 50 232 88 rlineto
          43 vlineto
          -411 -160 rlineto
          endchar
        </CharString>
        <CharString name="lira">
          12 0 40 206 34 65 34 233 39 hstemhm
          54 146 -143 76 -21 45 6 42 hintmask 11110101
          133 40 rmoveto
          4 vlineto
          hintmask 11110001
          46 44 26 50 83 vvcurveto
          9 0 8 -1 8 vhcurveto
          150 34 hlineto
          hintmask 11111000
          -154 hlineto
          -4 23 -6 21 -6 21 rrcurveto
          170 34 hlineto
          hintmask 11110010
          -179 hlineto
          -10 34 -8 33 35 90 callsubr
          -35 8 -34 9 -33 hvcurveto
          -12 hlineto
          -63 -4 rlineto
          -30 86 vlineto
          6 -21 6 -22 5 -22 rrcurveto
          hintmask 11111000
          -38 hlineto
          -65 -5 rlineto
          -29 vlineto
          hintmask 11110001
          108 hlineto
          1 -8 0 -9 -8 vvcurveto
          -77 -32 -75 -74 -42 vhcurveto
          hintmask 11110101
          -27 371 40 vlineto
          endchar
        </CharString>
        <CharString name="logicalnot">
          12 311 38 hstem
          404 41 vstem
          34 311 rmoveto
          370 -201 41 239 -411 hlineto
          endchar
        </CharString>
        <CharString name="lozenge">
          32 -10 38 604 38 hstem
          59 381 vstem
          225 -10 rmoveto
          49 hlineto
          166 340 -166 340 rlineto
          -49 hlineto
          -166 -340 rlineto
          188 -302 rmoveto
          -68 139 -75 163 75 161 68 141 -20 callsubr
          68 -141 76 -161 -76 -163 -68 -139 rlineto
          endchar
        </CharString>
</ttFont>
